<?xml version="1.0" encoding="UTF-8" standalone="no"?>
<svg
   width="695"
   height="377"
   version="1.1"
   viewBox="0 0 183.89 99.748"
   id="svg16"
   sodipodi:docname="painel-modo-claro.svg"
   inkscape:version="1.4.4 (dcaf3e7, 2026-05-05)"
   xmlns:inkscape="http://www.inkscape.org/namespaces/inkscape"
   xmlns:sodipodi="http://sodipodi.sourceforge.net/DTD/sodipodi-0.dtd"
   xmlns="http://www.w3.org/2000/svg"
   xmlns:svg="http://www.w3.org/2000/svg">
  <defs
     id="defs16" />
  <sodipodi:namedview
     id="namedview16"
     pagecolor="#ffffff"
     bordercolor="#000000"
     borderopacity="0.25"
     inkscape:showpageshadow="2"
     inkscape:pageopacity="0.0"
     inkscape:pagecheckerboard="0"
     inkscape:deskcolor="#d1d1d1"
     inkscape:zoom="1.8924953"
     inkscape:cx="432.49776"
     inkscape:cy="208.45494"
     inkscape:window-width="2210"
     inkscape:window-height="1211"
     inkscape:window-x="78"
     inkscape:window-y="78"
     inkscape:window-maximized="0"
     inkscape:current-layer="g16" />
  <g
     transform="translate(0 -197.25)"
     fill="#2f7d95"
     id="g16">
    <g
       transform="matrix(.99934 0 0 .9997 .12124 .058376)"
       stroke="#2f7d95"
       stroke-width=".26471"
       id="g15"
       style="fill:#c0be9b;fill-opacity:0.8559078">
      <path
         d="m8.1017 197.47h175.33v82.052l-18.622 17.094-12.187 4e-3 -4.1986-4.221-89.53-0.22186-3.7721 4.451-46.217-7e-3 -8.53-8.5493-0.13332-82.852z"
         fill-opacity=".18"
         stroke-opacity=".26"
         stroke-width=".26471"
         id="path1"
         style="fill:#d2d5b2;fill-opacity:0.48126802;stroke:#787a26;stroke-opacity:0.06916426" />
      <g
         stroke-opacity=".58"
         id="g14"
         style="stroke:none;fill:#c0be9b;fill-opacity:0.8559078">
        <g
           stroke-width=".26471"
           id="g7"
           style="fill:#c0be9b;fill-opacity:0.8559078;stroke:none">
          <path
             d="m164.81 296.61 18.622-17.094 0.0196 2.1273-16.303 14.967z"
             id="path2"
             style="fill:#c0be9b;fill-opacity:0.8559078;stroke:none" />
          <path
             d="m151.58 295.57 14.363 7e-3 -0.60833 1.0359-12.716 4e-3z"
             id="path3"
             style="fill:#c0be9b;fill-opacity:0.8559078;stroke:none" />
          <path
             d="m164.81 296.61 18.622-17.094 0.0196 2.1273-16.303 14.967z"
             id="path4"
             style="fill:#c0be9b;fill-opacity:0.8559078;stroke:none" />
          <path
             d="m151.58 295.57 14.363 7e-3 -0.60833 1.0359-12.716 4e-3z"
             id="path5"
             style="fill:#c0be9b;fill-opacity:0.8559078;stroke:none" />
        </g>
        <g
           stroke-width=".26471"
           id="g13"
           style="fill:#c0be9b;fill-opacity:0.8559078;stroke:none">
          <path
             d="m0.24021 205.22 7.8615-7.7504 2.1708 3e-3 -10.032 9.9844z"
             id="path9"
             style="fill:#c0be9b;fill-opacity:0.8559078;stroke:none" />
          <path
             d="m7.9789 197.47h27.345l1.5875 1.6902h-28.932z"
             id="path10"
             style="fill:#c0be9b;fill-opacity:0.8559078;stroke:none" />
          <path
             d="m37.67 197.48h3.0758l1.5875 1.6867h-3.0758z"
             id="path11"
             style="fill:#c0be9b;fill-opacity:0.8559078;stroke:none" />
          <path
             d="m42.114 197.47h3.0758l1.5875 1.6867h-3.0758z"
             id="path12"
             style="fill:#c0be9b;fill-opacity:0.8559078;stroke:none" />
          <path
             d="m46.418 197.47h3.0758l1.5875 1.6867h-3.0758z"
             id="path13"
             style="fill:#c0be9b;fill-opacity:0.8559078;stroke:none" />
        </g>
        <g
           stroke-width=".26471"
           id="g22"
           style="fill:#c0be9b;fill-opacity:0.8559078;stroke:none">
          <path
             d="m0.24021 205.22 7.8615-7.7504 2.1708 3e-3 -10.032 9.9844z"
             id="path18"
             style="fill:#c0be9b;fill-opacity:0.8559078;stroke:none" />
          <path
             d="m7.9789 197.47h27.345l1.5875 1.6902h-28.932z"
             id="path19"
             style="fill:#c0be9b;fill-opacity:0.8559078;stroke:none" />
          <path
             d="m37.67 197.48h3.0758l1.5875 1.6867h-3.0758z"
             id="path20"
             style="fill:#c0be9b;fill-opacity:0.8559078;stroke:none" />
          <path
             d="m42.114 197.47h3.0758l1.5875 1.6867h-3.0758z"
             id="path21"
             style="fill:#c0be9b;fill-opacity:0.8559078;stroke:none" />
          <path
             d="m46.418 197.47h3.0758l1.5875 1.6867h-3.0758z"
             id="path22"
             style="fill:#c0be9b;fill-opacity:0.8559078;stroke:none" />
        </g>
        <g
           stroke-width=".26471"
           id="g27"
           style="fill:#c0be9b;fill-opacity:0.8559078;stroke:none">
          <path
             d="m0.24021 205.22 7.8615-7.7504 2.1708 3e-3 -10.032 9.9844z"
             id="path23"
             style="fill:#c0be9b;fill-opacity:0.8559078;stroke:none" />
          <path
             d="m7.9789 197.47h27.345l1.5875 1.6902h-28.932z"
             id="path24"
             style="fill:#c0be9b;fill-opacity:0.8559078;stroke:none" />
          <path
             d="m37.67 197.48h3.0758l1.5875 1.6867h-3.0758z"
             id="path25"
             style="fill:#c0be9b;fill-opacity:0.8559078;stroke:none" />
          <path
             d="m42.114 197.47h3.0758l1.5875 1.6867h-3.0758z"
             id="path26"
             style="fill:#c0be9b;fill-opacity:0.8559078;stroke:none" />
          <path
             d="m46.418 197.47h3.0758l1.5875 1.6867h-3.0758z"
             id="path27"
             style="fill:#c0be9b;fill-opacity:0.8559078;stroke:none" />
        </g>
        <g
           stroke-width=".26471"
           id="g32"
           style="fill:#c0be9b;fill-opacity:0.8559078;stroke:none">
          <path
             d="m0.24021 205.22 7.8615-7.7504 2.1708 3e-3 -10.032 9.9844z"
             id="path28"
             style="fill:#c0be9b;fill-opacity:0.8559078;stroke:none" />
          <path
             d="m7.9789 197.47h27.345l1.5875 1.6902h-28.932z"
             id="path29"
             style="fill:#c0be9b;fill-opacity:0.8559078;stroke:none" />
          <path
             d="m37.67 197.48h3.0758l1.5875 1.6867h-3.0758z"
             id="path30"
             style="fill:#c0be9b;fill-opacity:0.8559078;stroke:none" />
          <path
             d="m42.114 197.47h3.0758l1.5875 1.6867h-3.0758z"
             id="path31"
             style="fill:#c0be9b;fill-opacity:0.8559078;stroke:none" />
          <path
             d="m46.418 197.47h3.0758l1.5875 1.6867h-3.0758z"
             id="path32"
             style="fill:#c0be9b;fill-opacity:0.8559078;stroke:none" />
        </g>
        <g
           stroke-width=".26471"
           id="g37"
           style="fill:#c0be9b;fill-opacity:0.8559078;stroke:none">
          <path
             d="m0.24021 205.22 7.8615-7.7504 2.1708 3e-3 -10.032 9.9844z"
             id="path33"
             style="fill:#c0be9b;fill-opacity:0.8559078;stroke:none" />
          <path
             d="m7.9789 197.47h27.345l1.5875 1.6902h-28.932z"
             id="path34"
             style="fill:#c0be9b;fill-opacity:0.8559078;stroke:none" />
          <path
             d="m37.67 197.48h3.0758l1.5875 1.6867h-3.0758z"
             id="path35"
             style="fill:#c0be9b;fill-opacity:0.8559078;stroke:none" />
          <path
             d="m42.114 197.47h3.0758l1.5875 1.6867h-3.0758z"
             id="path36"
             style="fill:#c0be9b;fill-opacity:0.8559078;stroke:none" />
          <path
             d="m46.418 197.47h3.0758l1.5875 1.6867h-3.0758z"
             id="path37"
             style="fill:#c0be9b;fill-opacity:0.8559078;stroke:none" />
        </g>
        <g
           stroke-width=".26471"
           id="g42"
           style="fill:#c0be9b;fill-opacity:0.8559078;stroke:none">
          <path
             d="m0.24021 205.22 7.8615-7.7504 2.1708 3e-3 -10.032 9.9844z"
             id="path38"
             style="fill:#c0be9b;fill-opacity:0.8559078;stroke:none" />
          <path
             d="m7.9789 197.47h27.345l1.5875 1.6902h-28.932z"
             id="path39"
             style="fill:#c0be9b;fill-opacity:0.8559078;stroke:none" />
          <path
             d="m37.67 197.48h3.0758l1.5875 1.6867h-3.0758z"
             id="path40"
             style="fill:#c0be9b;fill-opacity:0.8559078;stroke:none" />
          <path
             d="m42.114 197.47h3.0758l1.5875 1.6867h-3.0758z"
             id="path41"
             style="fill:#c0be9b;fill-opacity:0.8559078;stroke:none" />
          <path
             d="m46.418 197.47h3.0758l1.5875 1.6867h-3.0758z"
             id="path42"
             style="fill:#c0be9b;fill-opacity:0.8559078;stroke:none" />
        </g>
        <g
           stroke-width=".26471"
           id="g47"
           style="fill:#c0be9b;fill-opacity:0.8559078;stroke:none">
          <path
             d="m0.24021 205.22 7.8615-7.7504 2.1708 3e-3 -10.032 9.9844z"
             id="path43"
             style="fill:#c0be9b;fill-opacity:0.8559078;stroke:none" />
          <path
             d="m7.9789 197.47h27.345l1.5875 1.6902h-28.932z"
             id="path44"
             style="fill:#c0be9b;fill-opacity:0.8559078;stroke:none" />
          <path
             d="m37.67 197.48h3.0758l1.5875 1.6867h-3.0758z"
             id="path45"
             style="fill:#c0be9b;fill-opacity:0.8559078;stroke:none" />
          <path
             d="m42.114 197.47h3.0758l1.5875 1.6867h-3.0758z"
             id="path46"
             style="fill:#c0be9b;fill-opacity:0.8559078;stroke:none" />
          <path
             d="m46.418 197.47h3.0758l1.5875 1.6867h-3.0758z"
             id="path47"
             style="fill:#c0be9b;fill-opacity:0.8559078;stroke:none" />
        </g>
        <g
           stroke-width=".26471"
           id="g52"
           style="fill:#c0be9b;fill-opacity:0.8559078;stroke:none">
          <path
             d="m0.24021 205.22 7.8615-7.7504 2.1708 3e-3 -10.032 9.9844z"
             id="path48"
             style="fill:#c0be9b;fill-opacity:0.8559078;stroke:none" />
          <path
             d="m7.9789 197.47h27.345l1.5875 1.6902h-28.932z"
             id="path49"
             style="fill:#c0be9b;fill-opacity:0.8559078;stroke:none" />
          <path
             d="m37.67 197.48h3.0758l1.5875 1.6867h-3.0758z"
             id="path50"
             style="fill:#c0be9b;fill-opacity:0.8559078;stroke:none" />
          <path
             d="m42.114 197.47h3.0758l1.5875 1.6867h-3.0758z"
             id="path51"
             style="fill:#c0be9b;fill-opacity:0.8559078;stroke:none" />
          <path
             d="m46.418 197.47h3.0758l1.5875 1.6867h-3.0758z"
             id="path52"
             style="fill:#c0be9b;fill-opacity:0.8559078;stroke:none" />
        </g>
        <g
           stroke-width=".26471"
           id="g57"
           style="fill:#c0be9b;fill-opacity:0.8559078;stroke:none">
          <path
             d="m0.24021 205.22 7.8615-7.7504 2.1708 3e-3 -10.032 9.9844z"
             id="path53"
             style="fill:#c0be9b;fill-opacity:0.8559078;stroke:none" />
          <path
             d="m7.9789 197.47h27.345l1.5875 1.6902h-28.932z"
             id="path54"
             style="fill:#c0be9b;fill-opacity:0.8559078;stroke:none" />
          <path
             d="m37.67 197.48h3.0758l1.5875 1.6867h-3.0758z"
             id="path55"
             style="fill:#c0be9b;fill-opacity:0.8559078;stroke:none" />
          <path
             d="m42.114 197.47h3.0758l1.5875 1.6867h-3.0758z"
             id="path56"
             style="fill:#c0be9b;fill-opacity:0.8559078;stroke:none" />
          <path
             d="m46.418 197.47h3.0758l1.5875 1.6867h-3.0758z"
             id="path57"
             style="fill:#c0be9b;fill-opacity:0.8559078;stroke:none" />
        </g>
        <g
           stroke-width=".26471"
           id="g62"
           style="fill:#c0be9b;fill-opacity:0.8559078;stroke:none">
          <path
             d="m0.24021 205.22 7.8615-7.7504 2.1708 3e-3 -10.032 9.9844z"
             id="path58"
             style="fill:#c0be9b;fill-opacity:0.8559078;stroke:none" />
          <path
             d="m7.9789 197.47h27.345l1.5875 1.6902h-28.932z"
             id="path59"
             style="fill:#c0be9b;fill-opacity:0.8559078;stroke:none" />
          <path
             d="m37.67 197.48h3.0758l1.5875 1.6867h-3.0758z"
             id="path60"
             style="fill:#c0be9b;fill-opacity:0.8559078;stroke:none" />
          <path
             d="m42.114 197.47h3.0758l1.5875 1.6867h-3.0758z"
             id="path61"
             style="fill:#c0be9b;fill-opacity:0.8559078;stroke:none" />
          <path
             d="m46.418 197.47h3.0758l1.5875 1.6867h-3.0758z"
             id="path62"
             style="fill:#c0be9b;fill-opacity:0.8559078;stroke:none" />
        </g>
        <g
           stroke-width=".26471"
           id="g67"
           style="fill:#c0be9b;fill-opacity:0.8559078;stroke:none">
          <path
             d="m0.24021 205.22 7.8615-7.7504 2.1708 3e-3 -10.032 9.9844z"
             id="path63"
             style="fill:#c0be9b;fill-opacity:0.8559078;stroke:none" />
          <path
             d="m7.9789 197.47h27.345l1.5875 1.6902h-28.932z"
             id="path64"
             style="fill:#c0be9b;fill-opacity:0.8559078;stroke:none" />
          <path
             d="m37.67 197.48h3.0758l1.5875 1.6867h-3.0758z"
             id="path65"
             style="fill:#c0be9b;fill-opacity:0.8559078;stroke:none" />
          <path
             d="m42.114 197.47h3.0758l1.5875 1.6867h-3.0758z"
             id="path66"
             style="fill:#c0be9b;fill-opacity:0.8559078;stroke:none" />
          <path
             d="m46.418 197.47h3.0758l1.5875 1.6867h-3.0758z"
             id="path67"
             style="fill:#c0be9b;fill-opacity:0.8559078;stroke:none" />
        </g>
        <g
           stroke-width=".26471"
           id="g72"
           style="fill:#c0be9b;fill-opacity:0.8559078;stroke:none">
          <path
             d="m0.24021 205.22 7.8615-7.7504 2.1708 3e-3 -10.032 9.9844z"
             id="path68"
             style="fill:#c0be9b;fill-opacity:0.8559078;stroke:none" />
          <path
             d="m7.9789 197.47h27.345l1.5875 1.6902h-28.932z"
             id="path69"
             style="fill:#c0be9b;fill-opacity:0.8559078;stroke:none" />
          <path
             d="m37.67 197.48h3.0758l1.5875 1.6867h-3.0758z"
             id="path70"
             style="fill:#c0be9b;fill-opacity:0.8559078;stroke:none" />
          <path
             d="m42.114 197.47h3.0758l1.5875 1.6867h-3.0758z"
             id="path71"
             style="fill:#c0be9b;fill-opacity:0.8559078;stroke:none" />
          <path
             d="m46.418 197.47h3.0758l1.5875 1.6867h-3.0758z"
             id="path72"
             style="fill:#c0be9b;fill-opacity:0.8559078;stroke:none" />
        </g>
        <g
           stroke-width=".26471"
           id="g77"
           style="fill:#c0be9b;fill-opacity:0.8559078;stroke:none">
          <path
             d="m0.24021 205.22 7.8615-7.7504 2.1708 3e-3 -10.032 9.9844z"
             id="path73"
             style="fill:#c0be9b;fill-opacity:0.8559078;stroke:none" />
          <path
             d="m7.9789 197.47h27.345l1.5875 1.6902h-28.932z"
             id="path74"
             style="fill:#c0be9b;fill-opacity:0.8559078;stroke:none" />
          <path
             d="m37.67 197.48h3.0758l1.5875 1.6867h-3.0758z"
             id="path75"
             style="fill:#c0be9b;fill-opacity:0.8559078;stroke:none" />
          <path
             d="m42.114 197.47h3.0758l1.5875 1.6867h-3.0758z"
             id="path76"
             style="fill:#c0be9b;fill-opacity:0.8559078;stroke:none" />
          <path
             d="m46.418 197.47h3.0758l1.5875 1.6867h-3.0758z"
             id="path77"
             style="fill:#c0be9b;fill-opacity:0.8559078;stroke:none" />
        </g>
        <g
           stroke-width=".26471"
           id="g82"
           style="fill:#c0be9b;fill-opacity:0.8559078;stroke:none" />
      </g>
    </g>
    <g
       id="g83">
      <path
         d="m164.81 296.61 18.622-17.094 0.0196 2.1273-16.303 14.967z"
         id="path6"
         style="fill:#e0dc17;fill-opacity:0.58213252;stroke:none"
         transform="matrix(0.99933999,0,0,0.99969999,0.12124,0.05837618)" />
      <path
         d="m151.58 295.57 14.363 7e-3 -0.60833 1.0359-12.716 4e-3z"
         id="path7"
         style="fill:#e0dc17;fill-opacity:0.58213252;stroke:none"
         transform="matrix(0.99933999,0,0,0.99969999,0.12124,0.05837618)" />
      <path
         d="m0.24021 205.22 7.8615-7.7504 2.1708 3e-3 -10.032 9.9844z"
         id="path78"
         style="fill:#e0dc17;fill-opacity:0.58213252;stroke:none"
         transform="matrix(0.99933999,0,0,0.99969999,0.12124,0.05837618)" />
      <path
         d="m7.9789 197.47h27.345l1.5875 1.6902h-28.932z"
         id="path79"
         style="fill:#e0dc17;fill-opacity:0.58213252;stroke:none"
         transform="matrix(0.99933999,0,0,0.99969999,0.12124,0.05837618)" />
      <path
         d="m37.67 197.48h3.0758l1.5875 1.6867h-3.0758z"
         id="path80"
         style="fill:#e0dc17;fill-opacity:0.58213252;stroke:none"
         transform="matrix(0.99933999,0,0,0.99969999,0.12124,0.05837618)" />
      <path
         d="m42.114 197.47h3.0758l1.5875 1.6867h-3.0758z"
         id="path81"
         style="fill:#e0dc17;fill-opacity:0.58213252;stroke:none"
         transform="matrix(0.99933999,0,0,0.99969999,0.12124,0.05837618)" />
      <path
         d="m46.418 197.47h3.0758l1.5875 1.6867h-3.0758z"
         id="path82"
         style="fill:#e0dc17;fill-opacity:0.58213252;stroke:none"
         transform="matrix(0.99933999,0,0,0.99969999,0.12124,0.05837618)" />
      <path
         d="m0.46144 283.16 0.033073 4.8772 8.5244 8.5468 5.1482 5e-3 -1.4075-1.1725-2.698-0.0151-8.0705-8.0594-0.027398-2.5952z"
         id="path15"
         style="fill:#e0dc17;fill-opacity:0.58213252" />
      <path
         d="m173.99 197.46 2.1168 1.7481h5.5803v5.5803l1.7481 2.1168v-9.4452h-1.7481z"
         id="path16"
         style="fill:#e0dc17;fill-opacity:0.58213252" />
    </g>
  </g>
</svg>
