<?xml version="1.0" encoding="UTF-8" standalone="no"?>
<svg
   xmlns:dc="http://purl.org/dc/elements/1.1/"
   xmlns:cc="http://creativecommons.org/ns#"
   xmlns:rdf="http://www.w3.org/1999/02/22-rdf-syntax-ns#"
   xmlns:svg="http://www.w3.org/2000/svg"
   xmlns="http://www.w3.org/2000/svg"
   xmlns:sodipodi="http://sodipodi.sourceforge.net/DTD/sodipodi-0.dtd"
   xmlns:inkscape="http://www.inkscape.org/namespaces/inkscape"
   version="1.0"
   width="478.000000pt"
   height="428.000000pt"
   viewBox="0 0 478.000000 428.000000"
   preserveAspectRatio="xMidYMid meet"
   id="svg290"
   sodipodi:docname="cpa10.svg"
   inkscape:version="0.92.3 (2405546, 2018-03-11)">
  <metadata
     id="metadata296">
    <rdf:RDF>
      <cc:Work
         rdf:about="">
        <dc:format>image/svg+xml</dc:format>
        <dc:type
           rdf:resource="http://purl.org/dc/dcmitype/StillImage" />
      </cc:Work>
    </rdf:RDF>
  </metadata>
  <defs
     id="defs294" />
  <sodipodi:namedview
     pagecolor="#ffffff"
     bordercolor="#666666"
     borderopacity="1"
     objecttolerance="10"
     gridtolerance="10"
     guidetolerance="10"
     inkscape:pageopacity="0"
     inkscape:pageshadow="2"
     inkscape:window-width="1402"
     inkscape:window-height="737"
     id="namedview292"
     showgrid="false"
     inkscape:zoom="0.4135514"
     inkscape:cx="318.66667"
     inkscape:cy="285.33333"
     inkscape:window-x="0"
     inkscape:window-y="0"
     inkscape:window-maximized="0"
     inkscape:current-layer="svg290" />
  <g
     transform="translate(0.000000,428.000000) scale(0.100000,-0.100000)"
     fill="#000000"
     stroke="none"
     id="g288"
     style="fill:#808080">
    <path
       d="M0 4260 c0 -16 7 -20 35 -20 28 0 35 4 35 20 0 16 -7 20 -35 20 -28 0 -35 -4 -35 -20z"
       id="path2"
       style="fill:#808080" />
    <path
       d="M2123 4260 c-37 -22 -53 -67 -53 -147 l0 -53 -35 0 c-33 0 -35 -2 -35 -35 0 -33 2 -35 35 -35 l35 0 0 -195 0 -195 40 0 40 0 0 195 0 195 40 0 c39 0 40 1 40 35 0 34 -1 35 -40 35 l-40 0 0 49 c0 27 5 62 10 76 9 24 15 27 50 23 39 -3 40 -3 40 28 0 20 -6 34 -16 38 -30 12 -79 6 -111 -14z"
       id="path4"
       style="fill:#808080" />
    <path
       d="M4710 4260 c0 -16 7 -20 35 -20 28 0 35 4 35 20 0 16 -7 20 -35 20 -28 0 -35 -4 -35 -20z"
       id="path6"
       style="fill:#808080" />
    <path
       d="M1850 4195 l0 -45 45 0 45 0 0 45 0 45 -45 0 -45 0 0 -45z"
       id="path8"
       style="fill:#808080" />
    <path
       d="M2290 4195 l0 -45 45 0 45 0 0 45 0 45 -45 0 -45 0 0 -45z"
       id="path10"
       style="fill:#808080" />
    <path
       d="M647 4219 c-139 -33 -227 -200 -197 -376 28 -171 152 -270 309 -248 79 11 81 12 81 57 0 34 -2 39 -17 32 -10 -4 -49 -9 -88 -11 -61 -4 -74 -2 -105 19 -46 31 -76 78 -89 139 -31 143 10 258 108 309 30 15 122 16 149 1 34 -18 42 -13 42 28 0 37 -1 39 -44 50 -52 13 -95 13 -149 0z"
       id="path12"
       style="fill:#808080" />
    <path
       d="M3647 4219 c-16 -9 -47 -65 -47 -84 0 -14 48 -3 63 15 16 19 19 20 55 4 65 -29 88 -29 115 0 14 15 27 38 29 51 5 22 2 25 -23 25 -18 0 -29 -5 -29 -14 0 -23 -22 -24 -65 -5 -46 21 -72 23 -98 8z"
       id="path14"
       style="fill:#808080" />
    <path
       d="M0 4174 c0 -23 3 -25 33 -22 24 2 33 8 35 26 3 19 -1 22 -32 22 -32 0 -36 -3 -36 -26z"
       id="path16"
       style="fill:#808080" />
    <path
       d="M4712 4178 c2 -18 11 -24 36 -26 29 -3 32 -1 32 22 0 23 -4 26 -36 26 -31 0 -35 -3 -32 -22z"
       id="path18"
       style="fill:#808080" />
    <path
       d="M1653 4159 c-31 -9 -33 -13 -33 -54 0 -43 0 -44 -37 -47 -35 -3 -38 -6 -41 -35 -3 -32 -2 -33 37 -33 l41 0 0 -172 c1 -126 4 -178 14 -190 20 -27 67 -40 114 -33 40 6 42 8 42 40 0 33 -1 34 -36 28 -25 -4 -39 -2 -45 8 -5 8 -9 83 -9 167 l0 152 45 0 c45 0 45 0 45 35 0 35 0 35 -45 35 l-45 0 0 55 c0 30 -3 55 -7 54 -5 0 -23 -5 -40 -10z"
       id="path20"
       style="fill:#808080" />
    <path
       d="M0 4096 c0 -23 4 -26 36 -26 31 0 35 3 32 23 -2 17 -11 23 -35 25 -30 3 -33 1 -33 -22z"
       id="path22"
       style="fill:#808080" />
    <path
       d="M4717 4113 c-4 -3 -7 -15 -7 -25 0 -14 8 -18 35 -18 31 0 35 3 35 25 0 21 -5 25 -28 25 -16 0 -32 -3 -35 -7z"
       id="path24"
       style="fill:#808080" />
    <path
       d="M1015 4048 c-78 -42 -110 -118 -103 -242 8 -148 66 -212 188 -210 94 2 120 15 120 60 0 31 -3 35 -17 29 -74 -31 -93 -35 -129 -22 -44 14 -72 49 -81 99 l-6 37 129 3 129 3 -3 65 c-3 82 -34 145 -82 171 -38 21 -114 25 -145 7z m104 -58 c21 -11 39 -51 43 -95 l3 -30 -87 -3 c-83 -3 -88 -2 -88 18 0 30 28 93 47 108 20 14 57 16 82 2z"
       id="path26"
       style="fill:#808080" />
    <path
       d="M1320 3831 l0 -231 39 0 39 0 4 153 c3 119 7 159 20 183 18 33 67 58 93 48 12 -5 15 3 15 35 0 38 -2 41 -27 41 -32 0 -92 -34 -94 -52 -1 -7 -4 1 -8 17 -5 26 -11 30 -44 33 l-37 3 0 -230z"
       id="path28"
       style="fill:#808080" />
    <path
       d="M1857 4053 c-4 -3 -7 -107 -7 -230 l0 -223 40 0 40 0 0 230 0 230 -33 0 c-19 0 -37 -3 -40 -7z"
       id="path30"
       style="fill:#808080" />
    <path
       d="M2297 4053 c-4 -3 -7 -107 -7 -230 l0 -223 40 0 40 0 0 230 0 230 -33 0 c-19 0 -37 -3 -40 -7z"
       id="path32"
       style="fill:#808080" />
    <path
       d="M2574 4041 c-94 -43 -137 -179 -99 -309 34 -114 137 -162 268 -126 12 4 17 16 17 41 0 34 -1 35 -27 27 -112 -34 -185 23 -186 145 -1 115 39 171 122 171 25 0 53 -4 61 -10 17 -11 30 4 30 38 0 44 -110 57 -186 23z"
       id="path34"
       style="fill:#808080" />
    <path
       d="M2890 4046 c-32 -11 -35 -17 -38 -55 l-3 -43 23 16 c39 28 95 39 134 26 39 -13 54 -35 54 -78 0 -29 -1 -29 -68 -34 -124 -9 -182 -57 -182 -150 0 -83 31 -122 108 -134 36 -6 65 3 145 44 4 2 7 -6 7 -17 0 -17 6 -21 36 -21 l36 0 -4 184 c-3 168 -5 187 -24 213 -43 58 -139 79 -224 49z m170 -268 c0 -83 -63 -139 -132 -116 -50 17 -57 90 -12 129 26 23 42 27 97 28 l47 1 0 -42z"
       id="path36"
       style="fill:#808080" />
    <path
       d="M3319 4037 c-123 -65 -141 -307 -30 -400 18 -15 43 -30 57 -33 29 -7 29 -11 5 -48 -25 -37 -19 -46 25 -46 39 0 54 -21 33 -46 -10 -12 -24 -15 -55 -10 -33 4 -43 2 -48 -11 -4 -9 -4 -18 -2 -21 9 -9 95 -14 121 -8 84 21 86 136 2 136 -53 0 -27 31 41 49 40 11 42 13 42 51 l0 39 -35 -15 c-47 -19 -74 -18 -113 6 -41 25 -62 73 -62 144 0 122 48 173 152 162 l58 -6 0 34 c0 39 -14 46 -96 46 -34 0 -65 -8 -95 -23z"
       id="path38"
       style="fill:#808080" />
    <path
       d="M3638 4043 c-33 -13 -38 -20 -38 -47 0 -41 9 -50 29 -32 23 20 90 36 120 29 42 -9 61 -33 61 -73 l0 -37 -67 -5 c-130 -9 -191 -66 -181 -167 4 -35 12 -59 28 -76 49 -52 143 -56 200 -8 l30 25 0 -26 c0 -23 4 -26 36 -26 l35 0 -3 189 c-3 186 -3 190 -28 217 -50 54 -145 70 -222 37z m172 -273 c0 -40 -5 -56 -28 -81 -51 -57 -142 -35 -142 33 0 62 44 97 123 98 l47 0 0 -50z"
       id="path40"
       style="fill:#808080" />
    <path
       d="M4074 4046 c-38 -17 -77 -67 -94 -120 -20 -62 -9 -192 20 -244 40 -72 118 -104 198 -83 93 25 134 95 135 228 0 148 -65 234 -179 233 -27 -1 -63 -7 -80 -14z m135 -69 c58 -49 54 -257 -7 -303 -25 -20 -76 -17 -105 6 -47 37 -61 186 -26 264 23 50 96 67 138 33z"
       id="path42"
       style="fill:#808080" />
    <path
       d="M0 4010 c0 -16 7 -20 35 -20 28 0 35 4 35 20 0 16 -7 20 -35 20 -28 0 -35 -4 -35 -20z"
       id="path44"
       style="fill:#808080" />
    <path
       d="M4710 4010 c0 -16 7 -20 35 -20 28 0 35 4 35 20 0 16 -7 20 -35 20 -28 0 -35 -4 -35 -20z"
       id="path46"
       style="fill:#808080" />
    <path
       d="M0 3924 c0 -23 3 -25 33 -22 24 2 33 8 35 26 3 19 -1 22 -32 22 -32 0 -36 -3 -36 -26z"
       id="path48"
       style="fill:#808080" />
    <path
       d="M4712 3928 c2 -18 11 -24 36 -26 29 -3 32 -1 32 22 0 23 -4 26 -36 26 -31 0 -35 -3 -32 -22z"
       id="path50"
       style="fill:#808080" />
    <path
       d="M0 3846 c0 -23 4 -26 36 -26 31 0 35 3 32 23 -2 17 -11 23 -35 25 -30 3 -33 1 -33 -22z"
       id="path52"
       style="fill:#808080" />
    <path
       d="M4717 3863 c-4 -3 -7 -15 -7 -25 0 -14 8 -18 35 -18 31 0 35 3 35 25 0 21 -5 25 -28 25 -16 0 -32 -3 -35 -7z"
       id="path54"
       style="fill:#808080" />
    <path
       d="M0 3760 c0 -16 7 -20 35 -20 28 0 35 4 35 20 0 16 -7 20 -35 20 -28 0 -35 -4 -35 -20z"
       id="path56"
       style="fill:#808080" />
    <path
       d="M4710 3760 c0 -16 7 -20 35 -20 28 0 35 4 35 20 0 16 -7 20 -35 20 -28 0 -35 -4 -35 -20z"
       id="path58"
       style="fill:#808080" />
    <path
       d="M0 3674 c0 -23 3 -25 33 -22 24 2 33 8 35 26 3 19 -1 22 -32 22 -32 0 -36 -3 -36 -26z"
       id="path60"
       style="fill:#808080" />
    <path
       d="M4712 3678 c2 -18 11 -24 36 -26 29 -3 32 -1 32 22 0 23 -4 26 -36 26 -31 0 -35 -3 -32 -22z"
       id="path62"
       style="fill:#808080" />
    <path
       d="M0 3596 c0 -23 4 -26 36 -26 31 0 35 3 32 23 -2 17 -11 23 -35 25 -30 3 -33 1 -33 -22z"
       id="path64"
       style="fill:#808080" />
    <path
       d="M4717 3613 c-4 -3 -7 -15 -7 -25 0 -14 8 -18 35 -18 31 0 35 3 35 25 0 21 -5 25 -28 25 -16 0 -32 -3 -35 -7z"
       id="path66"
       style="fill:#808080" />
    <path
       d="M0 3510 c0 -16 7 -20 35 -20 28 0 35 4 35 20 0 16 -7 20 -35 20 -28 0 -35 -4 -35 -20z"
       id="path68"
       style="fill:#808080" />
    <path
       d="M4710 3510 c0 -16 7 -20 35 -20 28 0 35 4 35 20 0 16 -7 20 -35 20 -28 0 -35 -4 -35 -20z"
       id="path70"
       style="fill:#808080" />
    <path
       d="M0 3424 c0 -23 3 -25 33 -22 24 2 33 8 35 26 3 19 -1 22 -32 22 -32 0 -36 -3 -36 -26z"
       id="path72"
       style="fill:#808080" />
    <path
       d="M4712 3428 c2 -18 11 -24 36 -26 29 -3 32 -1 32 22 0 23 -4 26 -36 26 -31 0 -35 -3 -32 -22z"
       id="path74"
       style="fill:#808080" />
    <path
       d="M1695 3381 c-46 -19 -60 -49 -64 -137 l-3 -84 -39 0 c-38 0 -39 -1 -39 -35 0 -34 1 -35 40 -35 l40 0 0 -200 0 -200 40 0 40 0 0 200 0 200 40 0 c39 0 40 1 40 35 0 34 -1 35 -40 35 l-40 0 0 64 c0 78 16 100 67 94 31 -4 33 -2 33 28 0 20 -6 34 -16 38 -22 8 -75 6 -99 -3z"
       id="path76"
       style="fill:#808080" />
    <path
       d="M4230 3035 l0 -345 40 0 40 0 0 345 0 345 -40 0 -40 0 0 -345z"
       id="path78"
       style="fill:#808080" />
    <path
       d="M0 3346 c0 -23 4 -26 36 -26 31 0 35 3 32 23 -2 17 -11 23 -35 25 -30 3 -33 1 -33 -22z"
       id="path80"
       style="fill:#808080" />
    <path
       d="M4717 3363 c-4 -3 -7 -15 -7 -25 0 -14 8 -18 35 -18 31 0 35 3 35 25 0 21 -5 25 -28 25 -16 0 -32 -3 -35 -7z"
       id="path82"
       style="fill:#808080" />
    <path
       d="M1850 3300 l0 -50 45 0 45 0 0 50 0 50 -45 0 -45 0 0 -50z"
       id="path84"
       style="fill:#808080" />
    <path
       d="M2730 3300 l0 -50 40 0 40 0 0 50 0 50 -40 0 -40 0 0 -50z"
       id="path86"
       style="fill:#808080" />
    <path
       d="M470 3011 l0 -321 40 0 40 0 0 135 0 135 63 0 c87 0 144 29 174 90 45 89 19 206 -55 252 -32 20 -54 23 -149 27 l-113 3 0 -321z m222 210 c38 -42 40 -116 5 -157 -20 -23 -34 -28 -85 -32 l-62 -4 0 117 0 117 57 -4 c48 -4 61 -10 85 -37z"
       id="path88"
       style="fill:#808080" />
    <path
       d="M0 3260 c0 -16 7 -20 35 -20 28 0 35 4 35 20 0 16 -7 20 -35 20 -28 0 -35 -4 -35 -20z"
       id="path90"
       style="fill:#808080" />
    <path
       d="M4710 3260 c0 -16 7 -20 35 -20 28 0 35 4 35 20 0 16 -7 20 -35 20 -28 0 -35 -4 -35 -20z"
       id="path92"
       style="fill:#808080" />
    <path
       d="M0 3174 c0 -23 3 -25 33 -22 24 2 33 8 35 26 3 19 -1 22 -32 22 -32 0 -36 -3 -36 -26z"
       id="path94"
       style="fill:#808080" />
    <path
       d="M4712 3178 c2 -18 11 -24 36 -26 29 -3 32 -1 32 22 0 23 -4 26 -36 26 -31 0 -35 -3 -32 -22z"
       id="path96"
       style="fill:#808080" />
    <path
       d="M1283 3159 c-60 -11 -89 -34 -119 -96 -56 -114 -26 -300 57 -350 79 -48 175 -37 233 27 42 47 56 93 56 186 0 170 -85 258 -227 233z m97 -86 c41 -37 59 -130 41 -215 -16 -74 -36 -98 -88 -105 -35 -5 -45 -2 -67 20 -13 13 -30 44 -36 68 -16 56 -8 165 14 207 29 57 88 67 136 25z"
       id="path98"
       style="fill:#808080" />
    <path
       d="M2136 3159 c-28 -4 -50 -17 -73 -43 -28 -30 -33 -43 -33 -85 0 -64 28 -98 109 -135 58 -26 91 -56 91 -84 0 -7 -11 -24 -25 -37 -28 -29 -77 -33 -132 -10 -46 19 -43 21 -43 -20 0 -44 27 -58 120 -58 101 -1 151 44 153 140 0 59 -23 88 -108 132 -77 41 -91 56 -81 95 11 44 61 54 144 30 20 -6 22 -3 22 30 0 29 -4 36 -22 40 -47 10 -84 11 -122 5z"
       id="path100"
       style="fill:#808080" />
    <path
       d="M2478 3159 c-49 -8 -82 -31 -102 -72 -20 -43 -20 -68 -2 -111 11 -28 30 -43 98 -78 79 -41 83 -45 86 -79 2 -23 -2 -40 -12 -48 -26 -21 -88 -24 -131 -7 -44 19 -58 11 -53 -30 3 -26 9 -31 53 -42 128 -33 225 24 225 133 0 63 -23 91 -105 130 -54 25 -79 43 -85 61 -25 66 54 103 145 68 14 -6 16 -1 13 32 -3 38 -4 39 -48 44 -25 3 -61 3 -82 -1z"
       id="path102"
       style="fill:#808080" />
    <path
       d="M3049 3160 c-52 -9 -94 -43 -120 -98 -31 -62 -33 -193 -6 -264 56 -144 250 -156 325 -20 47 85 38 254 -19 326 -37 47 -107 69 -180 56z m103 -87 c28 -25 41 -83 37 -171 -3 -62 -9 -87 -25 -109 -42 -56 -106 -55 -148 0 -30 40 -35 196 -9 247 31 59 99 75 145 33z"
       id="path104"
       style="fill:#808080" />
    <path
       d="M3520 3159 c-19 -4 -45 -19 -57 -34 l-23 -26 0 30 c0 29 -2 31 -40 31 l-40 0 0 -235 0 -235 40 0 40 0 0 143 c1 213 18 257 101 257 64 0 69 -16 69 -222 l0 -178 40 0 40 0 0 190 c0 197 -5 227 -45 260 -22 18 -83 27 -125 19z"
       id="path106"
       style="fill:#808080" />
    <path
       d="M3909 3159 c-81 -12 -104 -38 -83 -93 5 -13 10 -12 35 6 43 32 134 32 160 -1 10 -13 19 -38 19 -57 0 -33 -1 -34 -40 -34 -74 0 -141 -21 -179 -55 -35 -32 -36 -36 -36 -105 0 -68 2 -73 31 -99 54 -48 150 -49 201 -2 23 21 33 18 33 -11 0 -14 8 -18 35 -18 l35 0 0 178 c0 149 -3 182 -18 211 -33 66 -101 94 -193 80z m131 -285 c0 -77 -41 -124 -110 -124 -40 0 -70 32 -70 73 0 56 56 95 138 96 l42 1 0 -46z"
       id="path108"
       style="fill:#808080" />
    <path
       d="M884 3144 c3 -9 6 -114 6 -235 l0 -219 39 0 39 0 4 164 c4 191 12 214 86 230 39 9 42 12 42 43 0 31 -2 33 -34 33 -22 0 -45 -9 -64 -25 -17 -14 -33 -25 -36 -25 -3 0 -6 11 -6 25 0 23 -4 25 -41 25 -33 0 -40 -3 -35 -16z"
       id="path110"
       style="fill:#808080" />
    <path
       d="M1860 2925 l0 -235 40 0 40 0 0 235 0 235 -40 0 -40 0 0 -235z"
       id="path112"
       style="fill:#808080" />
    <path
       d="M2730 2925 l0 -235 40 0 40 0 0 235 0 235 -40 0 -40 0 0 -235z"
       id="path114"
       style="fill:#808080" />
    <path
       d="M0 3096 c0 -23 4 -26 36 -26 31 0 35 3 32 23 -2 17 -11 23 -35 25 -30 3 -33 1 -33 -22z"
       id="path116"
       style="fill:#808080" />
    <path
       d="M4717 3113 c-4 -3 -7 -15 -7 -25 0 -14 8 -18 35 -18 31 0 35 3 35 25 0 21 -5 25 -28 25 -16 0 -32 -3 -35 -7z"
       id="path118"
       style="fill:#808080" />
    <path
       d="M0 3010 c0 -16 7 -20 35 -20 28 0 35 4 35 20 0 16 -7 20 -35 20 -28 0 -35 -4 -35 -20z"
       id="path120"
       style="fill:#808080" />
    <path
       d="M4710 3010 c0 -16 7 -20 35 -20 28 0 35 4 35 20 0 16 -7 20 -35 20 -28 0 -35 -4 -35 -20z"
       id="path122"
       style="fill:#808080" />
    <path
       d="M0 2924 c0 -23 3 -25 33 -22 24 2 33 8 35 26 3 19 -1 22 -32 22 -32 0 -36 -3 -36 -26z"
       id="path124"
       style="fill:#808080" />
    <path
       d="M4712 2928 c2 -18 11 -24 36 -26 29 -3 32 -1 32 22 0 23 -4 26 -36 26 -31 0 -35 -3 -32 -22z"
       id="path126"
       style="fill:#808080" />
    <path
       d="M0 2846 c0 -23 4 -26 36 -26 31 0 35 3 32 23 -2 17 -11 23 -35 25 -30 3 -33 1 -33 -22z"
       id="path128"
       style="fill:#808080" />
    <path
       d="M4717 2863 c-4 -3 -7 -15 -7 -25 0 -14 8 -18 35 -18 31 0 35 3 35 25 0 21 -5 25 -28 25 -16 0 -32 -3 -35 -7z"
       id="path130"
       style="fill:#808080" />
    <path
       d="M0 2760 c0 -16 7 -20 35 -20 28 0 35 4 35 20 0 16 -7 20 -35 20 -28 0 -35 -4 -35 -20z"
       id="path132"
       style="fill:#808080" />
    <path
       d="M4710 2760 c0 -16 7 -20 35 -20 28 0 35 4 35 20 0 16 -7 20 -35 20 -28 0 -35 -4 -35 -20z"
       id="path134"
       style="fill:#808080" />
    <path
       d="M0 2674 c0 -23 3 -25 33 -22 24 2 33 8 35 26 3 19 -1 22 -32 22 -32 0 -36 -3 -36 -26z"
       id="path136"
       style="fill:#808080" />
    <path
       d="M4712 2678 c2 -18 11 -24 36 -26 29 -3 32 -1 32 22 0 23 -4 26 -36 26 -31 0 -35 -3 -32 -22z"
       id="path138"
       style="fill:#808080" />
    <path
       d="M0 2596 c0 -23 4 -26 36 -26 31 0 35 3 32 23 -2 17 -11 23 -35 25 -30 3 -33 1 -33 -22z"
       id="path140"
       style="fill:#808080" />
    <path
       d="M4717 2613 c-4 -3 -7 -15 -7 -25 0 -14 8 -18 35 -18 31 0 35 3 35 25 0 21 -5 25 -28 25 -16 0 -32 -3 -35 -7z"
       id="path142"
       style="fill:#808080" />
    <path
       d="M0 2510 c0 -16 7 -20 35 -20 28 0 35 4 35 20 0 16 -7 20 -35 20 -28 0 -35 -4 -35 -20z"
       id="path144"
       style="fill:#808080" />
    <path
       d="M4710 2510 c0 -16 7 -20 35 -20 28 0 35 4 35 20 0 16 -7 20 -35 20 -28 0 -35 -4 -35 -20z"
       id="path146"
       style="fill:#808080" />
    <path
       d="M0 2424 c0 -23 3 -25 33 -22 24 2 33 8 35 26 3 19 -1 22 -32 22 -32 0 -36 -3 -36 -26z"
       id="path148"
       style="fill:#808080" />
    <path
       d="M4712 2428 c2 -18 11 -24 36 -26 29 -3 32 -1 32 22 0 23 -4 26 -36 26 -31 0 -35 -3 -32 -22z"
       id="path150"
       style="fill:#808080" />
    <path
       d="M0 2345 c0 -22 4 -25 35 -25 31 0 35 3 35 25 0 22 -4 25 -35 25 -31 0 -35 -3 -35 -25z"
       id="path152"
       style="fill:#808080" />
    <path
       d="M4710 2345 c0 -22 4 -25 35 -25 31 0 35 3 35 25 0 22 -4 25 -35 25 -31 0 -35 -3 -35 -25z"
       id="path154"
       style="fill:#808080" />
    <path
       d="M533 1905 l-142 -426 57 3 56 3 34 108 34 107 158 0 158 0 25 -82 c14 -46 29 -95 32 -110 7 -27 10 -28 66 -28 32 0 59 3 59 6 0 4 -62 195 -137 425 l-137 419 -61 0 -60 0 -142 -425z m275 58 l50 -163 -128 0 -128 0 60 188 c32 103 62 194 65 202 4 10 10 1 18 -25 7 -22 35 -113 63 -202z"
       id="path156"
       style="fill:#808080" />
    <path
       d="M1170 1905 l0 -425 55 0 55 0 2 335 3 335 154 -335 154 -335 69 0 68 0 0 425 0 425 -55 0 -55 0 -1 -337 -1 -338 -37 80 c-21 44 -91 196 -156 338 l-118 257 -68 0 -69 0 0 -425z"
       id="path158"
       style="fill:#808080" />
    <path
       d="M1910 1904 l0 -426 158 4 c152 3 159 4 205 31 88 52 130 151 107 253 -15 68 -51 119 -100 140 l-41 18 36 18 c105 54 125 222 38 319 -50 55 -104 69 -270 69 l-133 0 0 -426z m275 315 c45 -22 69 -62 69 -118 0 -90 -51 -132 -163 -135 l-66 -1 -3 124 c-1 69 0 131 3 139 7 18 117 12 160 -9z m10 -363 c48 -20 75 -68 75 -134 0 -102 -60 -152 -183 -152 l-67 0 0 150 0 150 70 0 c39 0 86 -6 105 -14z"
       id="path160"
       style="fill:#808080" />
    <path
       d="M2540 1905 l0 -425 55 0 55 0 0 425 0 425 -55 0 -55 0 0 -425z"
       id="path162"
       style="fill:#808080" />
    <path
       d="M2840 1905 l0 -425 50 0 50 0 2 356 3 356 111 -354 112 -353 43 -3 44 -3 116 353 117 353 1 -352 1 -353 55 0 55 0 0 425 0 425 -84 0 c-79 0 -85 -1 -91 -22 -4 -13 -52 -162 -107 -333 l-101 -310 -17 50 c-9 28 -57 177 -106 333 l-88 282 -83 0 -83 0 0 -425z"
       id="path164"
       style="fill:#808080" />
    <path
       d="M3975 2318 c-17 -44 -275 -824 -275 -830 0 -5 24 -8 54 -8 l54 0 25 83 c14 45 29 94 33 110 l6 27 161 -2 161 -3 33 -107 34 -108 58 0 59 0 -114 348 c-63 191 -125 381 -138 422 l-24 75 -61 3 c-43 2 -63 -1 -66 -10z m121 -304 c30 -99 57 -187 60 -196 5 -17 -5 -18 -121 -18 -126 0 -126 0 -120 23 36 121 120 376 122 373 2 -2 29 -84 59 -182z"
       id="path166"
       style="fill:#808080" />
    <path
       d="M0 2260 c0 -16 7 -20 35 -20 28 0 35 4 35 20 0 16 -7 20 -35 20 -28 0 -35 -4 -35 -20z"
       id="path168"
       style="fill:#808080" />
    <path
       d="M4710 2260 c0 -16 7 -20 35 -20 28 0 35 4 35 20 0 16 -7 20 -35 20 -28 0 -35 -4 -35 -20z"
       id="path170"
       style="fill:#808080" />
    <path
       d="M0 2174 c0 -23 3 -25 33 -22 24 2 33 8 35 26 3 19 -1 22 -32 22 -32 0 -36 -3 -36 -26z"
       id="path172"
       style="fill:#808080" />
    <path
       d="M4712 2178 c2 -18 11 -24 36 -26 29 -3 32 -1 32 22 0 23 -4 26 -36 26 -31 0 -35 -3 -32 -22z"
       id="path174"
       style="fill:#808080" />
    <path
       d="M0 2095 c0 -22 4 -25 35 -25 31 0 35 3 35 25 0 22 -4 25 -35 25 -31 0 -35 -3 -35 -25z"
       id="path176"
       style="fill:#808080" />
    <path
       d="M4710 2095 c0 -22 4 -25 35 -25 31 0 35 3 35 25 0 22 -4 25 -35 25 -31 0 -35 -3 -35 -25z"
       id="path178"
       style="fill:#808080" />
    <path
       d="M0 2010 c0 -16 7 -20 35 -20 28 0 35 4 35 20 0 16 -7 20 -35 20 -28 0 -35 -4 -35 -20z"
       id="path180"
       style="fill:#808080" />
    <path
       d="M4710 2010 c0 -16 7 -20 35 -20 28 0 35 4 35 20 0 16 -7 20 -35 20 -28 0 -35 -4 -35 -20z"
       id="path182"
       style="fill:#808080" />
    <path
       d="M0 1924 c0 -23 3 -25 33 -22 24 2 33 8 35 26 3 19 -1 22 -32 22 -32 0 -36 -3 -36 -26z"
       id="path184"
       style="fill:#808080" />
    <path
       d="M4712 1928 c2 -18 11 -24 36 -26 29 -3 32 -1 32 22 0 23 -4 26 -36 26 -31 0 -35 -3 -32 -22z"
       id="path186"
       style="fill:#808080" />
    <path
       d="M0 1845 c0 -22 4 -25 35 -25 31 0 35 3 35 25 0 22 -4 25 -35 25 -31 0 -35 -3 -35 -25z"
       id="path188"
       style="fill:#808080" />
    <path
       d="M4710 1845 c0 -22 4 -25 35 -25 31 0 35 3 35 25 0 22 -4 25 -35 25 -31 0 -35 -3 -35 -25z"
       id="path190"
       style="fill:#808080" />
    <path
       d="M0 1760 c0 -16 7 -20 35 -20 28 0 35 4 35 20 0 16 -7 20 -35 20 -28 0 -35 -4 -35 -20z"
       id="path192"
       style="fill:#808080" />
    <path
       d="M4710 1760 c0 -16 7 -20 35 -20 28 0 35 4 35 20 0 16 -7 20 -35 20 -28 0 -35 -4 -35 -20z"
       id="path194"
       style="fill:#808080" />
    <path
       d="M0 1674 c0 -23 3 -25 33 -22 24 2 33 8 35 26 3 19 -1 22 -32 22 -32 0 -36 -3 -36 -26z"
       id="path196"
       style="fill:#808080" />
    <path
       d="M4712 1678 c2 -18 11 -24 36 -26 29 -3 32 -1 32 22 0 23 -4 26 -36 26 -31 0 -35 -3 -32 -22z"
       id="path198"
       style="fill:#808080" />
    <path
       d="M0 1595 c0 -22 4 -25 35 -25 31 0 35 3 35 25 0 22 -4 25 -35 25 -31 0 -35 -3 -35 -25z"
       id="path200"
       style="fill:#808080" />
    <path
       d="M4710 1595 c0 -22 4 -25 35 -25 31 0 35 3 35 25 0 22 -4 25 -35 25 -31 0 -35 -3 -35 -25z"
       id="path202"
       style="fill:#808080" />
    <path
       d="M0 1516 c0 -23 4 -26 36 -26 31 0 35 3 32 23 -2 17 -11 23 -35 25 -30 3 -33 1 -33 -22z"
       id="path204"
       style="fill:#808080" />
    <path
       d="M4717 1533 c-4 -3 -7 -15 -7 -25 0 -14 8 -18 35 -18 31 0 35 3 35 25 0 21 -5 25 -28 25 -16 0 -32 -3 -35 -7z"
       id="path206"
       style="fill:#808080" />
    <path
       d="M0 1430 c0 -16 7 -20 35 -20 28 0 35 4 35 20 0 16 -7 20 -35 20 -28 0 -35 -4 -35 -20z"
       id="path208"
       style="fill:#808080" />
    <path
       d="M4710 1430 c0 -16 7 -20 35 -20 28 0 35 4 35 20 0 16 -7 20 -35 20 -28 0 -35 -4 -35 -20z"
       id="path210"
       style="fill:#808080" />
    <path
       d="M0 1345 c0 -22 4 -25 35 -25 31 0 35 3 35 25 0 22 -4 25 -35 25 -31 0 -35 -3 -35 -25z"
       id="path212"
       style="fill:#808080" />
    <path
       d="M4710 1345 c0 -22 4 -25 35 -25 31 0 35 3 35 25 0 22 -4 25 -35 25 -31 0 -35 -3 -35 -25z"
       id="path214"
       style="fill:#808080" />
    <path
       d="M0 1266 c0 -23 4 -26 36 -26 31 0 35 3 32 23 -2 17 -11 23 -35 25 -30 3 -33 1 -33 -22z"
       id="path216"
       style="fill:#808080" />
    <path
       d="M4717 1283 c-4 -3 -7 -15 -7 -25 0 -14 8 -18 35 -18 31 0 35 3 35 25 0 21 -5 25 -28 25 -16 0 -32 -3 -35 -7z"
       id="path218"
       style="fill:#808080" />
    <path
       d="M0 1180 c0 -16 7 -20 35 -20 28 0 35 4 35 20 0 16 -7 20 -35 20 -28 0 -35 -4 -35 -20z"
       id="path220"
       style="fill:#808080" />
    <path
       d="M4710 1180 c0 -16 7 -20 35 -20 28 0 35 4 35 20 0 16 -7 20 -35 20 -28 0 -35 -4 -35 -20z"
       id="path222"
       style="fill:#808080" />
    <path
       d="M0 1095 c0 -22 4 -25 35 -25 31 0 35 3 35 25 0 22 -4 25 -35 25 -31 0 -35 -3 -35 -25z"
       id="path224"
       style="fill:#808080" />
    <path
       d="M4710 1095 c0 -22 4 -25 35 -25 31 0 35 3 35 25 0 22 -4 25 -35 25 -31 0 -35 -3 -35 -25z"
       id="path226"
       style="fill:#808080" />
    <path
       d="M736 1030 c-105 -34 -197 -114 -250 -218 -53 -103 -72 -318 -41 -450 43 -181 151 -299 319 -347 48 -14 84 -16 175 -12 64 3 131 10 149 17 l32 12 0 73 c0 105 -3 109 -53 83 -54 -27 -169 -36 -234 -17 -67 18 -143 95 -173 174 -20 50 -23 79 -24 180 0 101 4 129 22 176 34 87 73 133 136 164 51 25 64 27 139 23 52 -3 99 -13 129 -26 56 -25 58 -23 58 83 l0 73 -69 16 c-96 22 -240 20 -315 -4z"
       id="path228"
       style="fill:#808080" />
    <path
       d="M3912 1035 c-88 -38 -148 -120 -183 -250 -19 -68 -22 -106 -22 -260 0 -154 3 -192 21 -259 27 -97 58 -152 116 -203 53 -46 101 -63 183 -63 122 0 209 57 264 173 78 170 79 534 0 702 -37 80 -71 118 -133 149 -43 22 -65 26 -132 26 -47 -1 -95 -7 -114 -15z m177 -151 c50 -42 63 -102 68 -316 7 -258 -16 -370 -82 -414 -35 -23 -93 -13 -122 21 -47 53 -58 122 -58 350 0 175 3 220 18 269 34 110 108 148 176 90z"
       id="path230"
       style="fill:#808080" />
    <path
       d="M0 1016 c0 -23 4 -26 36 -26 31 0 35 3 32 23 -2 17 -11 23 -35 25 -30 3 -33 1 -33 -22z"
       id="path232"
       style="fill:#808080" />
    <path
       d="M1260 526 l0 -516 95 0 95 0 0 199 0 198 106 6 c92 4 114 9 170 37 77 38 116 89 140 182 32 123 -3 270 -79 334 -73 62 -104 68 -324 72 l-203 4 0 -516z m350 346 c50 -25 74 -72 74 -146 -1 -113 -56 -165 -176 -166 l-58 0 0 165 0 165 63 0 c39 0 75 -6 97 -18z"
       id="path234"
       style="fill:#808080" />
    <path
       d="M2141 1018 c-35 -94 -331 -983 -331 -994 0 -11 19 -14 93 -14 l94 0 12 43 c7 23 24 79 37 124 l25 83 173 0 173 0 33 -114 c17 -62 35 -118 39 -125 5 -8 37 -11 103 -9 l96 3 -134 415 c-74 228 -148 459 -165 513 l-31 97 -104 0 c-99 0 -105 -1 -113 -22z m173 -379 c32 -121 56 -222 53 -225 -2 -2 -60 -3 -129 -2 l-124 3 65 223 c36 122 67 222 71 222 3 0 31 -99 64 -221z"
       id="path236"
       style="fill:#808080" />
    <path
       d="M3322 963 c-48 -43 -105 -92 -125 -110 l-37 -32 46 -66 47 -67 63 63 64 63 0 -402 0 -402 95 0 95 0 0 515 0 515 -80 0 -79 0 -89 -77z"
       id="path238"
       style="fill:#808080" />
    <path
       d="M4717 1033 c-4 -3 -7 -15 -7 -25 0 -14 8 -18 35 -18 31 0 35 3 35 25 0 21 -5 25 -28 25 -16 0 -32 -3 -35 -7z"
       id="path240"
       style="fill:#808080" />
    <path
       d="M0 930 c0 -16 7 -20 35 -20 28 0 35 4 35 20 0 16 -7 20 -35 20 -28 0 -35 -4 -35 -20z"
       id="path242"
       style="fill:#808080" />
    <path
       d="M4710 930 c0 -16 7 -20 35 -20 28 0 35 4 35 20 0 16 -7 20 -35 20 -28 0 -35 -4 -35 -20z"
       id="path244"
       style="fill:#808080" />
    <path
       d="M0 845 c0 -22 4 -25 35 -25 31 0 35 3 35 25 0 22 -4 25 -35 25 -31 0 -35 -3 -35 -25z"
       id="path246"
       style="fill:#808080" />
    <path
       d="M4710 845 c0 -22 4 -25 35 -25 31 0 35 3 35 25 0 22 -4 25 -35 25 -31 0 -35 -3 -35 -25z"
       id="path248"
       style="fill:#808080" />
    <path
       d="M0 766 c0 -23 4 -26 36 -26 31 0 35 3 32 23 -2 17 -11 23 -35 25 -30 3 -33 1 -33 -22z"
       id="path250"
       style="fill:#808080" />
    <path
       d="M4717 783 c-4 -3 -7 -15 -7 -25 0 -14 8 -18 35 -18 31 0 35 3 35 25 0 21 -5 25 -28 25 -16 0 -32 -3 -35 -7z"
       id="path252"
       style="fill:#808080" />
    <path
       d="M0 680 c0 -16 7 -20 35 -20 28 0 35 4 35 20 0 16 -7 20 -35 20 -28 0 -35 -4 -35 -20z"
       id="path254"
       style="fill:#808080" />
    <path
       d="M4710 680 c0 -16 7 -20 35 -20 28 0 35 4 35 20 0 16 -7 20 -35 20 -28 0 -35 -4 -35 -20z"
       id="path256"
       style="fill:#808080" />
    <path
       d="M0 594 c0 -23 3 -25 33 -22 24 2 33 8 35 26 3 19 -1 22 -32 22 -32 0 -36 -3 -36 -26z"
       id="path258"
       style="fill:#808080" />
    <path
       d="M4712 598 c2 -18 11 -24 36 -26 29 -3 32 -1 32 22 0 23 -4 26 -36 26 -31 0 -35 -3 -32 -22z"
       id="path260"
       style="fill:#808080" />
    <path
       d="M0 516 c0 -23 4 -26 36 -26 31 0 35 3 32 23 -2 17 -11 23 -35 25 -30 3 -33 1 -33 -22z"
       id="path262"
       style="fill:#808080" />
    <path
       d="M4717 533 c-4 -3 -7 -15 -7 -25 0 -14 8 -18 35 -18 31 0 35 3 35 25 0 21 -5 25 -28 25 -16 0 -32 -3 -35 -7z"
       id="path264"
       style="fill:#808080" />
    <path
       d="M2780 430 l0 -80 170 0 170 0 0 80 0 80 -170 0 -170 0 0 -80z"
       id="path266"
       style="fill:#808080" />
    <path
       d="M0 430 c0 -16 7 -20 35 -20 28 0 35 4 35 20 0 16 -7 20 -35 20 -28 0 -35 -4 -35 -20z"
       id="path268"
       style="fill:#808080" />
    <path
       d="M4710 430 c0 -16 7 -20 35 -20 28 0 35 4 35 20 0 16 -7 20 -35 20 -28 0 -35 -4 -35 -20z"
       id="path270"
       style="fill:#808080" />
    <path
       d="M0 344 c0 -23 3 -25 33 -22 24 2 33 8 35 26 3 19 -1 22 -32 22 -32 0 -36 -3 -36 -26z"
       id="path272"
       style="fill:#808080" />
    <path
       d="M4712 348 c2 -18 11 -24 36 -26 29 -3 32 -1 32 22 0 23 -4 26 -36 26 -31 0 -35 -3 -32 -22z"
       id="path274"
       style="fill:#808080" />
    <path
       d="M0 266 c0 -23 4 -26 36 -26 31 0 35 3 32 23 -2 17 -11 23 -35 25 -30 3 -33 1 -33 -22z"
       id="path276"
       style="fill:#808080" />
    <path
       d="M4717 283 c-4 -3 -7 -15 -7 -25 0 -14 8 -18 35 -18 31 0 35 3 35 25 0 21 -5 25 -28 25 -16 0 -32 -3 -35 -7z"
       id="path278"
       style="fill:#808080" />
    <path
       d="M0 180 c0 -16 7 -20 35 -20 28 0 35 4 35 20 0 16 -7 20 -35 20 -28 0 -35 -4 -35 -20z"
       id="path280"
       style="fill:#808080" />
    <path
       d="M4710 180 c0 -16 7 -20 35 -20 28 0 35 4 35 20 0 16 -7 20 -35 20 -28 0 -35 -4 -35 -20z"
       id="path282"
       style="fill:#808080" />
    <path
       d="M0 105 c0 -10 11 -15 35 -15 24 0 35 5 35 15 0 10 -11 15 -35 15 -24 0 -35 -5 -35 -15z"
       id="path284"
       style="fill:#808080" />
    <path
       d="M4710 105 c0 -10 11 -15 35 -15 24 0 35 5 35 15 0 10 -11 15 -35 15 -24 0 -35 -5 -35 -15z"
       id="path286"
       style="fill:#808080" />
  </g>
</svg>
