<?xml version="1.0" encoding="UTF-8" standalone="no"?>
<svg
   width="695"
   height="377"
   version="1.1"
   viewBox="0 0 183.89 99.748"
   id="svg16"
   sodipodi:docname="painel-modo-claro.svg"
   inkscape:version="1.4.4 (dcaf3e7, 2026-05-05)"
   xmlns:inkscape="http://www.inkscape.org/namespaces/inkscape"
   xmlns:sodipodi="http://sodipodi.sourceforge.net/DTD/sodipodi-0.dtd"
   xmlns="http://www.w3.org/2000/svg"
   xmlns:svg="http://www.w3.org/2000/svg">
  <defs
     id="defs16" />
  <sodipodi:namedview
     id="namedview16"
     pagecolor="#ffffff"
     bordercolor="#000000"
     borderopacity="0.25"
     inkscape:showpageshadow="2"
     inkscape:pageopacity="0.0"
     inkscape:pagecheckerboard="0"
     inkscape:deskcolor="#d1d1d1"
     inkscape:zoom="0.45366433"
     inkscape:cx="23.144866"
     inkscape:cy="428.73108"
     inkscape:window-width="927"
     inkscape:window-height="1211"
     inkscape:window-x="78"
     inkscape:window-y="78"
     inkscape:window-maximized="0"
     inkscape:current-layer="g15" />
  <g
     transform="translate(0 -197.25)"
     fill="#2f7d95"
     id="g16">
    <g
       transform="matrix(.99934 0 0 .9997 .12124 .058376)"
       stroke="#2f7d95"
       stroke-width=".26471"
       id="g15">
      <path
         d="m8.1017 197.47h175.33v82.052l-18.622 17.094-12.187 4e-3 -4.1986-4.221-89.53-0.22186-3.7721 4.451-46.217-7e-3 -8.53-8.5493-0.13332-82.852z"
         fill-opacity=".18"
         stroke-opacity=".26"
         stroke-width=".26471"
         id="path1" />
      <g
         stroke-opacity=".58"
         id="g14">
        <g
           stroke-width=".26471"
           id="g7">
          <path
             d="m164.81 296.61 18.622-17.094 0.0196 2.1273-16.303 14.967z"
             id="path2" />
          <path
             d="m151.58 295.57 14.363 7e-3 -0.60833 1.0359-12.716 4e-3z"
             id="path3" />
          <path
             d="m164.81 296.61 18.622-17.094 0.0196 2.1273-16.303 14.967z"
             id="path4" />
          <path
             d="m151.58 295.57 14.363 7e-3 -0.60833 1.0359-12.716 4e-3z"
             id="path5" />
          <path
             d="m164.81 296.61 18.622-17.094 0.0196 2.1273-16.303 14.967z"
             id="path6" />
          <path
             d="m151.58 295.57 14.363 7e-3 -0.60833 1.0359-12.716 4e-3z"
             id="path7" />
        </g>
        <path
           transform="matrix(.26458 0 0 .26458 0 197.25)"
           d="m693.28 310.92-66.121 60.695-54.25-0.0274 3.9277 3.957 46.059-0.0156h8.8398l61.619-56.57z"
           stroke-width="1.0005"
           id="path8" />
        <g
           stroke-width=".26471"
           id="g13">
          <path
             d="m0.24021 205.22 7.8615-7.7504 2.1708 3e-3 -10.032 9.9844z"
             id="path9" />
          <path
             d="m7.9789 197.47h27.345l1.5875 1.6902h-28.932z"
             id="path10" />
          <path
             d="m37.67 197.48h3.0758l1.5875 1.6867h-3.0758z"
             id="path11" />
          <path
             d="m42.114 197.47h3.0758l1.5875 1.6867h-3.0758z"
             id="path12" />
          <path
             d="m46.418 197.47h3.0758l1.5875 1.6867h-3.0758z"
             id="path13" />
        </g>
        <path
           d="m30.621 0.80469-0.007813 0.0078125h-0.45703v0.45117l-29.248 28.834v8.4551l31.502-31.352h107.1l-6-6.3887h-97.414z"
           stroke-width="1.0005"
           id="path14"
           transform="matrix(.26458 0 0 .26458 0 197.25)" />
      </g>
    </g>
    <path
       d="m0.46144 283.16 0.033073 4.8772 8.5244 8.5468 5.1482 5e-3 -1.4075-1.1725-2.698-0.0151-8.0705-8.0594-0.027398-2.5952z"
       id="path15" />
    <path
       d="m173.99 197.46 2.1168 1.7481h5.5803v5.5803l1.7481 2.1168v-9.4452h-1.7481z"
       id="path16" />
  </g>
</svg>
