<?xml version="1.0" encoding="utf-8"?>
<!-- Generator: Adobe Illustrator 23.0.5, SVG Export Plug-In . SVG Version: 6.00 Build 0)  -->
<svg version="1.2" baseProfile="tiny" id="Camada_1"
	 xmlns="http://www.w3.org/2000/svg" xmlns:xlink="http://www.w3.org/1999/xlink" x="0px" y="0px" viewBox="0 0 256 91.9"
	 xml:space="preserve">
<g>
	<path d="M17.14,50.65V40.63h7.43v1.7h-5.41v2.22h5.03v1.69h-5.03v2.73h5.6v1.69H17.14z"/>
	<path d="M25.78,48.58l1.93-0.29c0.08,0.37,0.25,0.66,0.5,0.85s0.6,0.29,1.05,0.29c0.5,0,0.87-0.09,1.12-0.27
		c0.17-0.13,0.25-0.3,0.25-0.51c0-0.15-0.05-0.27-0.14-0.36c-0.1-0.09-0.31-0.18-0.64-0.25c-1.55-0.34-2.53-0.65-2.95-0.94
		c-0.57-0.39-0.86-0.94-0.86-1.63c0-0.63,0.25-1.16,0.75-1.59s1.27-0.64,2.31-0.64c0.99,0,1.73,0.16,2.21,0.49s0.82,0.8,1,1.44
		l-1.81,0.33c-0.08-0.28-0.22-0.5-0.44-0.65s-0.53-0.23-0.93-0.23c-0.51,0-0.87,0.07-1.09,0.21c-0.15,0.1-0.22,0.23-0.22,0.39
		c0,0.14,0.06,0.25,0.19,0.35c0.17,0.13,0.77,0.31,1.79,0.54s1.74,0.52,2.14,0.85c0.4,0.34,0.6,0.82,0.6,1.43
		c0,0.67-0.28,1.24-0.83,1.72s-1.38,0.72-2.47,0.72c-0.99,0-1.77-0.2-2.35-0.6S25.96,49.26,25.78,48.58z"/>
	<path d="M37.58,43.39v1.53h-1.31v2.93c0,0.59,0.01,0.94,0.04,1.04s0.08,0.18,0.17,0.24s0.2,0.1,0.32,0.1
		c0.18,0,0.44-0.06,0.77-0.18l0.16,1.49c-0.45,0.19-0.95,0.29-1.52,0.29c-0.35,0-0.66-0.06-0.94-0.17s-0.48-0.27-0.61-0.45
		s-0.22-0.43-0.27-0.75c-0.04-0.22-0.06-0.67-0.06-1.35v-3.17h-0.88v-1.53h0.88v-1.44l1.93-1.12v2.56H37.58z"/>
	<path d="M40.34,45.6l-1.74-0.31c0.2-0.7,0.53-1.22,1.01-1.56s1.19-0.51,2.13-0.51c0.86,0,1.49,0.1,1.91,0.3s0.71,0.46,0.89,0.77
		s0.26,0.89,0.26,1.72l-0.02,2.24c0,0.64,0.03,1.11,0.09,1.41s0.18,0.63,0.35,0.97h-1.9c-0.05-0.13-0.11-0.32-0.18-0.57
		c-0.03-0.11-0.05-0.19-0.07-0.23c-0.33,0.32-0.68,0.56-1.05,0.72s-0.77,0.24-1.2,0.24c-0.75,0-1.34-0.2-1.77-0.61
		s-0.65-0.92-0.65-1.54c0-0.41,0.1-0.78,0.29-1.1s0.47-0.57,0.82-0.74s0.86-0.32,1.53-0.45c0.9-0.17,1.52-0.33,1.87-0.47v-0.19
		c0-0.37-0.09-0.63-0.27-0.79s-0.53-0.24-1.03-0.24c-0.34,0-0.61,0.07-0.8,0.2S40.46,45.26,40.34,45.6z M42.91,47.16
		c-0.25,0.08-0.64,0.18-1.17,0.29s-0.88,0.23-1.05,0.33c-0.25,0.18-0.38,0.4-0.38,0.68c0,0.27,0.1,0.5,0.3,0.7s0.46,0.29,0.77,0.29
		c0.35,0,0.68-0.11,0.99-0.34c0.23-0.17,0.39-0.39,0.46-0.64c0.05-0.16,0.08-0.48,0.08-0.94V47.16z M40.84,42.5l0.94-2.04h2.15
		l-1.88,2.04H40.84z"/>
	<path fill="#AF0B0B" d="M57.19,50.65h-1.92v-3.71c0-0.78-0.04-1.29-0.12-1.52s-0.22-0.41-0.4-0.54s-0.41-0.19-0.67-0.19
		c-0.33,0-0.63,0.09-0.9,0.27s-0.45,0.42-0.54,0.72s-0.15,0.86-0.15,1.67v3.29h-1.92v-7.26h1.78v1.07c0.63-0.82,1.43-1.23,2.39-1.23
		c0.42,0,0.81,0.08,1.16,0.23s0.62,0.35,0.8,0.58s0.31,0.51,0.38,0.81s0.11,0.73,0.11,1.29V50.65z"/>
	<path fill="#AF0B0B" d="M63.91,50.65v-1.09c-0.26,0.39-0.61,0.69-1.04,0.92s-0.89,0.33-1.36,0.33c-0.49,0-0.93-0.11-1.31-0.32
		s-0.67-0.52-0.84-0.9s-0.26-0.92-0.26-1.61v-4.59h1.92v3.34c0,1.02,0.04,1.65,0.11,1.88s0.2,0.41,0.39,0.55s0.42,0.2,0.71,0.2
		c0.33,0,0.62-0.09,0.88-0.27s0.44-0.4,0.53-0.67s0.14-0.92,0.14-1.96v-3.06h1.92v7.26H63.91z"/>
	<path fill="#AF0B0B" d="M67.61,50.65V40.63h1.92v3.61c0.59-0.67,1.29-1.01,2.11-1.01c0.88,0,1.62,0.32,2.19,0.96
		s0.87,1.56,0.87,2.76c0,1.24-0.29,2.19-0.89,2.86s-1.31,1-2.15,1c-0.41,0-0.82-0.1-1.23-0.31s-0.75-0.51-1.04-0.92v1.07H67.61z
		 M69.51,46.86c0,0.75,0.12,1.31,0.36,1.67c0.33,0.51,0.77,0.77,1.33,0.77c0.42,0,0.79-0.18,1.08-0.54s0.45-0.93,0.45-1.71
		c0-0.83-0.15-1.43-0.45-1.79s-0.69-0.55-1.16-0.55c-0.46,0-0.84,0.18-1.15,0.54S69.51,46.13,69.51,46.86z"/>
	<path fill="#AF0B0B" d="M76.24,50.65V40.63h1.92v10.02H76.24z"/>
	<path fill="#AF0B0B" d="M81.56,45.6l-1.74-0.31c0.2-0.7,0.53-1.22,1.01-1.56s1.19-0.51,2.13-0.51c0.86,0,1.49,0.1,1.91,0.3
		s0.71,0.46,0.89,0.77s0.26,0.89,0.26,1.72L86,48.26c0,0.64,0.03,1.11,0.09,1.41s0.18,0.63,0.35,0.97h-1.9
		c-0.05-0.13-0.11-0.32-0.18-0.57c-0.03-0.11-0.05-0.19-0.07-0.23c-0.33,0.32-0.68,0.56-1.05,0.72s-0.77,0.24-1.2,0.24
		c-0.75,0-1.34-0.2-1.77-0.61s-0.65-0.92-0.65-1.54c0-0.41,0.1-0.78,0.29-1.1s0.47-0.57,0.82-0.74s0.86-0.32,1.53-0.45
		c0.9-0.17,1.52-0.33,1.87-0.47v-0.19c0-0.37-0.09-0.63-0.27-0.79s-0.53-0.24-1.03-0.24c-0.34,0-0.61,0.07-0.8,0.2
		S81.68,45.26,81.56,45.6z M84.13,47.16c-0.25,0.08-0.64,0.18-1.17,0.29s-0.88,0.23-1.05,0.33c-0.25,0.18-0.38,0.4-0.38,0.68
		c0,0.27,0.1,0.5,0.3,0.7s0.46,0.29,0.77,0.29c0.35,0,0.68-0.11,0.99-0.34c0.23-0.17,0.39-0.39,0.46-0.64
		c0.05-0.16,0.08-0.48,0.08-0.94V47.16z"/>
	<path fill="#AF0B0B" d="M94.57,50.65h-1.78v-1.07c-0.3,0.41-0.65,0.72-1.05,0.93s-0.81,0.3-1.22,0.3c-0.83,0-1.55-0.34-2.14-1.01
		s-0.89-1.61-0.89-2.81c0-1.23,0.29-2.17,0.87-2.81s1.31-0.96,2.19-0.96c0.81,0,1.51,0.34,2.11,1.01v-3.61h1.92V50.65z M89.45,46.86
		c0,0.77,0.11,1.34,0.32,1.68c0.31,0.5,0.74,0.75,1.3,0.75c0.44,0,0.82-0.19,1.13-0.56s0.46-0.94,0.46-1.69
		c0-0.83-0.15-1.43-0.45-1.8s-0.69-0.55-1.16-0.55c-0.46,0-0.84,0.18-1.15,0.54S89.45,46.14,89.45,46.86z"/>
	<path fill="#AF0B0B" d="M96.02,46.91c0-0.64,0.16-1.26,0.47-1.85s0.76-1.05,1.34-1.37s1.22-0.47,1.93-0.47c1.1,0,2,0.36,2.7,1.07
		s1.05,1.61,1.05,2.7c0,1.1-0.35,2.01-1.06,2.73s-1.6,1.08-2.68,1.08c-0.67,0-1.3-0.15-1.9-0.45s-1.06-0.74-1.38-1.32
		S96.02,47.75,96.02,46.91z M97.99,47.02c0,0.72,0.17,1.27,0.51,1.65s0.76,0.57,1.26,0.57s0.92-0.19,1.26-0.57s0.51-0.94,0.51-1.67
		c0-0.71-0.17-1.26-0.51-1.64s-0.76-0.57-1.26-0.57s-0.92,0.19-1.26,0.57S97.99,46.3,97.99,47.02z"/>
	<path d="M108.85,43.39h1.79v1.07c0.23-0.36,0.55-0.66,0.94-0.89s0.84-0.34,1.32-0.34c0.84,0,1.56,0.33,2.15,0.99
		s0.88,1.58,0.88,2.76c0,1.21-0.3,2.15-0.89,2.83s-1.31,1.01-2.15,1.01c-0.4,0-0.76-0.08-1.09-0.24s-0.67-0.43-1.03-0.82v3.66h-1.92
		V43.39z M110.75,46.89c0,0.82,0.16,1.42,0.49,1.81s0.72,0.58,1.18,0.58c0.45,0,0.82-0.18,1.11-0.54s0.44-0.94,0.44-1.76
		c0-0.76-0.15-1.33-0.46-1.7s-0.68-0.55-1.13-0.55c-0.47,0-0.86,0.18-1.17,0.54S110.75,46.18,110.75,46.89z"/>
	<path d="M117.02,46.91c0-0.64,0.16-1.26,0.47-1.85s0.76-1.05,1.34-1.37c0.58-0.31,1.22-0.47,1.93-0.47c1.1,0,2,0.36,2.7,1.07
		s1.05,1.61,1.05,2.7c0,1.1-0.35,2.01-1.06,2.73c-0.71,0.72-1.6,1.08-2.68,1.08c-0.67,0-1.3-0.15-1.9-0.45
		c-0.6-0.3-1.06-0.74-1.38-1.32S117.02,47.75,117.02,46.91z M118.98,47.02c0,0.72,0.17,1.27,0.51,1.65s0.76,0.57,1.26,0.57
		s0.92-0.19,1.26-0.57c0.34-0.38,0.51-0.94,0.51-1.67c0-0.71-0.17-1.26-0.51-1.64c-0.34-0.38-0.76-0.57-1.26-0.57
		s-0.92,0.19-1.26,0.57S118.98,46.3,118.98,47.02z"/>
	<path d="M126.01,42.4v-1.78h1.92v1.78H126.01z M126.01,50.65v-7.26h1.92v7.26H126.01z"/>
	<path d="M129.22,48.58l1.93-0.29c0.08,0.37,0.25,0.66,0.5,0.85s0.6,0.29,1.05,0.29c0.5,0,0.87-0.09,1.12-0.27
		c0.17-0.13,0.25-0.3,0.25-0.51c0-0.15-0.05-0.27-0.14-0.36c-0.1-0.09-0.31-0.18-0.64-0.25c-1.55-0.34-2.53-0.65-2.95-0.94
		c-0.57-0.39-0.86-0.94-0.86-1.63c0-0.63,0.25-1.16,0.75-1.59s1.27-0.64,2.31-0.64c0.99,0,1.73,0.16,2.21,0.49s0.82,0.8,1,1.44
		l-1.81,0.33c-0.08-0.28-0.22-0.5-0.44-0.65c-0.22-0.15-0.53-0.23-0.93-0.23c-0.51,0-0.87,0.07-1.09,0.21
		c-0.15,0.1-0.22,0.23-0.22,0.39c0,0.14,0.06,0.25,0.19,0.35c0.17,0.13,0.77,0.31,1.79,0.54c1.02,0.23,1.74,0.52,2.14,0.85
		c0.4,0.34,0.6,0.82,0.6,1.43c0,0.67-0.28,1.24-0.83,1.72s-1.38,0.72-2.47,0.72c-0.99,0-1.77-0.2-2.35-0.6
		C129.78,49.81,129.4,49.26,129.22,48.58z"/>
	<path d="M145.78,48.34l1.91,0.32c-0.25,0.7-0.63,1.24-1.17,1.6c-0.53,0.37-1.19,0.55-1.99,0.55c-1.26,0-2.2-0.41-2.8-1.24
		c-0.48-0.66-0.72-1.49-0.72-2.5c0-1.2,0.31-2.15,0.94-2.83s1.42-1.02,2.39-1.02c1.08,0,1.93,0.36,2.56,1.07s0.92,1.81,0.9,3.28
		h-4.81c0.01,0.57,0.17,1.01,0.46,1.33s0.67,0.48,1.11,0.48c0.3,0,0.55-0.08,0.76-0.25S145.68,48.7,145.78,48.34z M145.89,46.4
		c-0.01-0.56-0.16-0.98-0.43-1.27s-0.61-0.43-1-0.43c-0.42,0-0.77,0.15-1.04,0.46s-0.41,0.72-0.4,1.24H145.89z"/>
	<path d="M148.69,48.58l1.93-0.29c0.08,0.37,0.25,0.66,0.5,0.85s0.6,0.29,1.05,0.29c0.5,0,0.87-0.09,1.12-0.27
		c0.17-0.13,0.25-0.3,0.25-0.51c0-0.15-0.05-0.27-0.14-0.36c-0.1-0.09-0.31-0.18-0.64-0.25c-1.55-0.34-2.53-0.65-2.95-0.94
		c-0.57-0.39-0.86-0.94-0.86-1.63c0-0.63,0.25-1.16,0.75-1.59s1.27-0.64,2.31-0.64c0.99,0,1.73,0.16,2.21,0.49s0.82,0.8,1,1.44
		l-1.81,0.33c-0.08-0.28-0.22-0.5-0.44-0.65c-0.22-0.15-0.53-0.23-0.93-0.23c-0.51,0-0.87,0.07-1.09,0.21
		c-0.15,0.1-0.22,0.23-0.22,0.39c0,0.14,0.06,0.25,0.19,0.35c0.17,0.13,0.77,0.31,1.79,0.54c1.02,0.23,1.74,0.52,2.14,0.85
		c0.4,0.34,0.6,0.82,0.6,1.43c0,0.67-0.28,1.24-0.83,1.72s-1.38,0.72-2.47,0.72c-0.99,0-1.77-0.2-2.35-0.6
		C149.24,49.81,148.86,49.26,148.69,48.58z"/>
	<path d="M160.48,43.39v1.53h-1.31v2.93c0,0.59,0.01,0.94,0.04,1.04c0.03,0.1,0.08,0.18,0.17,0.24c0.09,0.06,0.2,0.1,0.32,0.1
		c0.18,0,0.44-0.06,0.77-0.18l0.16,1.49c-0.45,0.19-0.95,0.29-1.52,0.29c-0.35,0-0.66-0.06-0.94-0.17s-0.48-0.27-0.61-0.45
		c-0.13-0.18-0.22-0.43-0.27-0.75c-0.04-0.22-0.06-0.67-0.06-1.35v-3.17h-0.88v-1.53h0.88v-1.44l1.93-1.12v2.56H160.48z"/>
	<path d="M163.25,45.6l-1.74-0.31c0.2-0.7,0.53-1.22,1.01-1.56s1.19-0.51,2.13-0.51c0.86,0,1.5,0.1,1.91,0.3s0.71,0.46,0.88,0.77
		c0.17,0.31,0.26,0.89,0.26,1.72l-0.02,2.24c0,0.64,0.03,1.11,0.09,1.41c0.06,0.3,0.18,0.63,0.35,0.97h-1.9
		c-0.05-0.13-0.11-0.32-0.18-0.57c-0.03-0.11-0.05-0.19-0.07-0.23c-0.33,0.32-0.68,0.56-1.05,0.72s-0.77,0.24-1.2,0.24
		c-0.75,0-1.34-0.2-1.77-0.61c-0.43-0.41-0.65-0.92-0.65-1.54c0-0.41,0.1-0.78,0.29-1.1s0.47-0.57,0.82-0.74
		c0.35-0.17,0.86-0.32,1.53-0.45c0.9-0.17,1.52-0.33,1.87-0.47v-0.19c0-0.37-0.09-0.63-0.27-0.79s-0.53-0.24-1.03-0.24
		c-0.34,0-0.61,0.07-0.8,0.2S163.37,45.26,163.25,45.6z M165.82,47.16c-0.25,0.08-0.64,0.18-1.17,0.29s-0.88,0.23-1.05,0.33
		c-0.25,0.18-0.38,0.4-0.38,0.68c0,0.27,0.1,0.5,0.3,0.7s0.46,0.29,0.77,0.29c0.35,0,0.68-0.11,0.99-0.34
		c0.23-0.17,0.38-0.39,0.46-0.64c0.05-0.16,0.08-0.48,0.08-0.94V47.16z M163.74,42.5l0.94-2.04h2.15l-1.88,2.04H163.74z"/>
	<path fill="#AF0B0B" d="M179.82,45.53l-1.89,0.34c-0.06-0.38-0.21-0.66-0.43-0.85c-0.23-0.19-0.52-0.29-0.88-0.29
		c-0.48,0-0.86,0.17-1.14,0.5c-0.29,0.33-0.43,0.88-0.43,1.66c0,0.86,0.14,1.47,0.43,1.83c0.29,0.36,0.68,0.53,1.17,0.53
		c0.36,0,0.66-0.1,0.9-0.31s0.4-0.56,0.49-1.07l1.89,0.32c-0.2,0.87-0.57,1.52-1.13,1.96s-1.3,0.66-2.24,0.66
		c-1.06,0-1.91-0.33-2.54-1c-0.63-0.67-0.95-1.6-0.95-2.78c0-1.2,0.32-2.13,0.95-2.8s1.49-1,2.57-1c0.88,0,1.59,0.19,2.11,0.57
		C179.21,44.17,179.59,44.75,179.82,45.53z"/>
	<path fill="#AF0B0B" d="M183.19,40.63v3.68c0.62-0.72,1.36-1.09,2.22-1.09c0.44,0,0.84,0.08,1.2,0.25s0.62,0.37,0.8,0.63
		c0.18,0.26,0.3,0.54,0.37,0.85c0.07,0.31,0.1,0.79,0.1,1.44v4.26h-1.92v-3.83c0-0.76-0.04-1.24-0.11-1.45s-0.2-0.37-0.39-0.49
		c-0.18-0.12-0.42-0.18-0.69-0.18c-0.32,0-0.6,0.08-0.85,0.23s-0.43,0.39-0.55,0.7c-0.12,0.31-0.17,0.77-0.17,1.38v3.64h-1.92V40.63
		H183.19z"/>
	<path fill="#AF0B0B" d="M189.38,46.91c0-0.64,0.16-1.26,0.47-1.85s0.76-1.05,1.34-1.37c0.58-0.31,1.22-0.47,1.93-0.47
		c1.1,0,2,0.36,2.7,1.07s1.05,1.61,1.05,2.7c0,1.1-0.35,2.01-1.06,2.73c-0.71,0.72-1.6,1.08-2.68,1.08c-0.67,0-1.3-0.15-1.9-0.45
		c-0.6-0.3-1.06-0.74-1.38-1.32S189.38,47.75,189.38,46.91z M191.35,47.02c0,0.72,0.17,1.27,0.51,1.65s0.76,0.57,1.26,0.57
		s0.92-0.19,1.26-0.57c0.34-0.38,0.51-0.94,0.51-1.67c0-0.71-0.17-1.26-0.51-1.64c-0.34-0.38-0.76-0.57-1.26-0.57
		s-0.92,0.19-1.26,0.57S191.35,46.3,191.35,47.02z"/>
	<path fill="#AF0B0B" d="M200.37,50.65l-2.93-7.26h2.02l1.37,3.71l0.4,1.24c0.1-0.31,0.17-0.52,0.2-0.62
		c0.06-0.21,0.13-0.41,0.21-0.62l1.38-3.71h1.98l-2.88,7.26H200.37z"/>
	<path fill="#AF0B0B" d="M210.37,48.34l1.91,0.32c-0.25,0.7-0.63,1.24-1.17,1.6c-0.53,0.37-1.19,0.55-1.99,0.55
		c-1.26,0-2.2-0.41-2.8-1.24c-0.48-0.66-0.72-1.49-0.72-2.5c0-1.2,0.31-2.15,0.94-2.83s1.42-1.02,2.39-1.02
		c1.08,0,1.93,0.36,2.56,1.07s0.92,1.81,0.9,3.28h-4.81c0.01,0.57,0.17,1.01,0.46,1.33s0.67,0.48,1.11,0.48
		c0.3,0,0.55-0.08,0.76-0.25S210.26,48.7,210.37,48.34z M210.48,46.4c-0.01-0.56-0.16-0.98-0.43-1.27s-0.61-0.43-1-0.43
		c-0.42,0-0.77,0.15-1.04,0.46s-0.41,0.72-0.4,1.24H210.48z"/>
	<path fill="#AF0B0B" d="M220.55,50.65h-1.92v-3.71c0-0.78-0.04-1.29-0.12-1.52s-0.21-0.41-0.4-0.54c-0.18-0.13-0.41-0.19-0.67-0.19
		c-0.33,0-0.63,0.09-0.9,0.27s-0.45,0.42-0.54,0.72c-0.1,0.3-0.15,0.86-0.15,1.67v3.29h-1.92v-7.26h1.78v1.07
		c0.63-0.82,1.43-1.23,2.39-1.23c0.42,0,0.81,0.08,1.16,0.23s0.62,0.35,0.8,0.58c0.18,0.24,0.3,0.51,0.38,0.81
		c0.07,0.3,0.11,0.73,0.11,1.29V50.65z"/>
	<path fill="#AF0B0B" d="M229.16,50.65h-1.78v-1.07c-0.3,0.41-0.65,0.72-1.05,0.93c-0.4,0.2-0.81,0.3-1.22,0.3
		c-0.83,0-1.55-0.34-2.14-1.01c-0.6-0.67-0.89-1.61-0.89-2.81c0-1.23,0.29-2.17,0.87-2.81s1.31-0.96,2.19-0.96
		c0.81,0,1.51,0.34,2.11,1.01v-3.61h1.92V50.65z M224.03,46.86c0,0.77,0.11,1.34,0.32,1.68c0.31,0.5,0.74,0.75,1.3,0.75
		c0.44,0,0.82-0.19,1.13-0.56s0.46-0.94,0.46-1.69c0-0.83-0.15-1.43-0.45-1.8s-0.69-0.55-1.16-0.55c-0.46,0-0.84,0.18-1.14,0.54
		C224.19,45.6,224.03,46.14,224.03,46.86z"/>
	<path fill="#AF0B0B" d="M230.61,46.91c0-0.64,0.16-1.26,0.47-1.85s0.76-1.05,1.34-1.37c0.58-0.31,1.22-0.47,1.93-0.47
		c1.1,0,2,0.36,2.7,1.07s1.05,1.61,1.05,2.7c0,1.1-0.35,2.01-1.06,2.73c-0.71,0.72-1.6,1.08-2.68,1.08c-0.67,0-1.3-0.15-1.9-0.45
		c-0.6-0.3-1.06-0.74-1.38-1.32S230.61,47.75,230.61,46.91z M232.58,47.02c0,0.72,0.17,1.27,0.51,1.65s0.76,0.57,1.26,0.57
		s0.92-0.19,1.26-0.57c0.34-0.38,0.51-0.94,0.51-1.67c0-0.71-0.17-1.26-0.51-1.64c-0.34-0.38-0.76-0.57-1.26-0.57
		s-0.92,0.19-1.26,0.57S232.58,46.3,232.58,47.02z"/>
	<path d="M239.6,50.65v-1.92h1.92v1.92H239.6z"/>
</g>
<g>
	<path d="M8.28,12.59L11.58,4h1.22l3.52,8.59h-1.29l-1-2.6h-3.59l-0.94,2.6H8.28z M10.76,9.06h2.91l-0.9-2.38
		c-0.27-0.72-0.48-1.32-0.61-1.78C12.05,5.45,11.9,6,11.7,6.54L10.76,9.06z"/>
	<path d="M17.34,12.59v-5.4h-0.93V6.37h0.93V5.7c0-0.42,0.04-0.73,0.11-0.93c0.1-0.27,0.28-0.5,0.54-0.67s0.61-0.25,1.08-0.25
		c0.3,0,0.63,0.04,0.98,0.11l-0.16,0.92c-0.22-0.04-0.43-0.06-0.62-0.06c-0.32,0-0.55,0.07-0.68,0.21s-0.2,0.39-0.2,0.77v0.57h1.21
		v0.82h-1.21v5.4H17.34z"/>
	<path d="M20.43,5.21V4h1.05v1.21H20.43z M20.43,12.59V6.37h1.05v6.22H20.43z"/>
	<path d="M23.08,12.59V6.37h0.95v0.94c0.24-0.44,0.47-0.73,0.67-0.87s0.43-0.21,0.68-0.21c0.36,0,0.72,0.11,1.08,0.34L26.1,7.54
		c-0.26-0.15-0.52-0.23-0.77-0.23c-0.23,0-0.44,0.07-0.62,0.21s-0.31,0.33-0.39,0.58c-0.12,0.38-0.18,0.79-0.18,1.23v3.26H23.08z"/>
	<path d="M27.09,12.59V6.37h0.94v0.87c0.2-0.3,0.46-0.55,0.78-0.74s0.69-0.28,1.11-0.28c0.46,0,0.84,0.1,1.13,0.29
		s0.5,0.46,0.62,0.8c0.49-0.73,1.13-1.09,1.92-1.09c0.62,0,1.09,0.17,1.42,0.51s0.5,0.87,0.5,1.58v4.27h-1.05V8.67
		c0-0.42-0.03-0.73-0.1-0.91s-0.19-0.33-0.37-0.45s-0.39-0.17-0.63-0.17c-0.44,0-0.8,0.15-1.09,0.44s-0.43,0.76-0.43,1.4v3.62h-1.05
		V8.55c0-0.47-0.09-0.82-0.26-1.05s-0.45-0.35-0.84-0.35c-0.3,0-0.57,0.08-0.82,0.23s-0.43,0.38-0.55,0.69s-0.17,0.73-0.17,1.3v3.23
		H27.09z"/>
	<path d="M41.14,11.82c-0.39,0.33-0.77,0.57-1.13,0.7s-0.75,0.21-1.16,0.21c-0.68,0-1.21-0.17-1.58-0.5s-0.55-0.76-0.55-1.28
		c0-0.3,0.07-0.58,0.21-0.83s0.32-0.45,0.54-0.61s0.48-0.27,0.76-0.35c0.21-0.05,0.52-0.11,0.94-0.16c0.85-0.1,1.48-0.22,1.88-0.36
		c0-0.14,0.01-0.24,0.01-0.28c0-0.43-0.1-0.73-0.3-0.91c-0.27-0.24-0.67-0.36-1.2-0.36c-0.5,0-0.86,0.09-1.1,0.26
		s-0.41,0.48-0.52,0.92l-1.03-0.14c0.09-0.44,0.25-0.8,0.46-1.07s0.53-0.48,0.93-0.63s0.88-0.22,1.41-0.22
		c0.53,0,0.96,0.06,1.29,0.19s0.58,0.28,0.73,0.47s0.27,0.43,0.33,0.72c0.04,0.18,0.05,0.5,0.05,0.97v1.41
		c0,0.98,0.02,1.6,0.07,1.86s0.13,0.51,0.27,0.75h-1.1C41.24,12.37,41.17,12.11,41.14,11.82z M41.05,9.47
		c-0.38,0.16-0.96,0.29-1.72,0.4c-0.43,0.06-0.74,0.13-0.92,0.21s-0.32,0.19-0.42,0.34s-0.15,0.32-0.15,0.5
		c0,0.28,0.11,0.52,0.32,0.7s0.52,0.28,0.93,0.28c0.41,0,0.77-0.09,1.08-0.27s0.55-0.42,0.7-0.73c0.11-0.24,0.17-0.59,0.17-1.05
		V9.47z"/>
	<path d="M46.06,11.65l0.15,0.93c-0.3,0.06-0.56,0.09-0.8,0.09c-0.38,0-0.68-0.06-0.89-0.18s-0.36-0.28-0.45-0.48
		s-0.13-0.61-0.13-1.25V7.19h-0.77V6.37h0.77V4.82L45,4.19v2.17h1.06v0.82H45v3.64c0,0.3,0.02,0.49,0.06,0.58s0.1,0.15,0.18,0.21
		s0.2,0.08,0.36,0.08C45.71,11.69,45.87,11.67,46.06,11.65z"/>
	<path d="M47.1,5.21V4h1.05v1.21H47.1z M47.1,12.59V6.37h1.05v6.22H47.1z"/>
	<path d="M51.48,12.59l-2.37-6.22h1.11l1.34,3.73c0.14,0.4,0.28,0.82,0.4,1.25c0.09-0.33,0.22-0.72,0.39-1.18l1.38-3.8h1.08
		l-2.36,6.22H51.48z"/>
	<path d="M59.82,11.82c-0.39,0.33-0.77,0.57-1.13,0.7s-0.75,0.21-1.16,0.21c-0.68,0-1.21-0.17-1.58-0.5s-0.55-0.76-0.55-1.28
		c0-0.3,0.07-0.58,0.21-0.83s0.32-0.45,0.54-0.61s0.48-0.27,0.76-0.35c0.21-0.05,0.52-0.11,0.94-0.16c0.85-0.1,1.48-0.22,1.88-0.36
		c0-0.14,0.01-0.24,0.01-0.28c0-0.43-0.1-0.73-0.3-0.91c-0.27-0.24-0.67-0.36-1.2-0.36c-0.5,0-0.86,0.09-1.1,0.26
		s-0.41,0.48-0.52,0.92l-1.03-0.14c0.09-0.44,0.25-0.8,0.46-1.07s0.53-0.48,0.93-0.63s0.88-0.22,1.41-0.22
		c0.53,0,0.96,0.06,1.29,0.19s0.58,0.28,0.73,0.47s0.27,0.43,0.33,0.72c0.04,0.18,0.05,0.5,0.05,0.97v1.41
		c0,0.98,0.02,1.6,0.07,1.86s0.13,0.51,0.27,0.75h-1.1C59.92,12.37,59.85,12.11,59.82,11.82z M59.73,9.47
		c-0.38,0.16-0.96,0.29-1.72,0.4c-0.43,0.06-0.74,0.13-0.92,0.21s-0.32,0.19-0.42,0.34s-0.15,0.32-0.15,0.5
		c0,0.28,0.11,0.52,0.32,0.7s0.52,0.28,0.93,0.28c0.41,0,0.77-0.09,1.08-0.27s0.55-0.42,0.7-0.73c0.11-0.24,0.17-0.59,0.17-1.05
		V9.47z"/>
</g>
<g>
	<path d="M56.41,84.34l1.14,0.29c-0.24,0.93-0.67,1.65-1.29,2.14s-1.38,0.74-2.27,0.74c-0.93,0-1.68-0.19-2.26-0.57
		s-1.02-0.92-1.32-1.64s-0.45-1.48-0.45-2.3c0-0.89,0.17-1.67,0.51-2.34s0.83-1.17,1.46-1.52s1.33-0.52,2.08-0.52
		c0.86,0,1.58,0.22,2.17,0.66s0.99,1.05,1.22,1.85l-1.12,0.26c-0.2-0.63-0.49-1.08-0.87-1.37s-0.86-0.43-1.43-0.43
		c-0.66,0-1.21,0.16-1.66,0.47s-0.75,0.74-0.93,1.27s-0.27,1.08-0.27,1.65c0,0.73,0.11,1.37,0.32,1.91s0.54,0.95,0.99,1.22
		s0.94,0.4,1.46,0.4c0.64,0,1.18-0.18,1.62-0.55S56.25,85.06,56.41,84.34z"/>
	<path d="M58.42,84.24c0-1.15,0.32-2.01,0.96-2.56c0.54-0.46,1.19-0.69,1.96-0.69c0.86,0,1.55,0.28,2.1,0.84s0.81,1.33,0.81,2.32
		c0,0.8-0.12,1.43-0.36,1.89s-0.59,0.82-1.05,1.07s-0.96,0.38-1.5,0.38c-0.87,0-1.58-0.28-2.11-0.84S58.42,85.29,58.42,84.24z
		 M59.5,84.24c0,0.8,0.17,1.39,0.52,1.79s0.79,0.59,1.31,0.59c0.52,0,0.96-0.2,1.31-0.6s0.52-1.01,0.52-1.82
		c0-0.77-0.17-1.35-0.52-1.75s-0.78-0.59-1.3-0.59c-0.53,0-0.96,0.2-1.31,0.59S59.5,83.44,59.5,84.24z"/>
	<path d="M65.48,87.35v-6.22h0.95v0.88c0.46-0.68,1.12-1.03,1.98-1.03c0.38,0,0.72,0.07,1.03,0.2s0.55,0.31,0.71,0.53
		s0.27,0.48,0.33,0.78c0.04,0.2,0.06,0.54,0.06,1.03v3.83h-1.05v-3.79c0-0.43-0.04-0.75-0.12-0.96s-0.23-0.38-0.44-0.51
		s-0.45-0.19-0.74-0.19c-0.45,0-0.84,0.14-1.16,0.43s-0.49,0.83-0.49,1.62v3.4H65.48z"/>
	<path d="M76.22,85.07l1.04,0.13c-0.11,0.71-0.4,1.27-0.87,1.68s-1.04,0.61-1.72,0.61c-0.85,0-1.54-0.28-2.05-0.83
		s-0.78-1.35-0.78-2.39c0-0.67,0.11-1.26,0.33-1.76s0.56-0.88,1.02-1.13s0.95-0.38,1.49-0.38c0.68,0,1.23,0.17,1.66,0.51
		s0.71,0.83,0.83,1.46l-1.03,0.16c-0.1-0.42-0.27-0.73-0.52-0.94s-0.55-0.32-0.9-0.32c-0.53,0-0.96,0.19-1.29,0.57
		s-0.5,0.98-0.5,1.81c0,0.84,0.16,1.44,0.48,1.82s0.74,0.57,1.25,0.57c0.41,0,0.76-0.13,1.04-0.38S76.14,85.6,76.22,85.07z"/>
	<path d="M78.13,87.35v-8.59h1.05v8.59H78.13z"/>
	<path d="M84.9,87.35v-0.91c-0.48,0.7-1.14,1.05-1.97,1.05c-0.37,0-0.71-0.07-1.03-0.21s-0.55-0.32-0.71-0.53s-0.26-0.47-0.33-0.78
		c-0.04-0.21-0.06-0.54-0.06-0.98v-3.86h1.05v3.45c0,0.55,0.02,0.92,0.06,1.11c0.07,0.28,0.21,0.5,0.42,0.65s0.48,0.24,0.8,0.24
		s0.61-0.08,0.89-0.24s0.47-0.38,0.59-0.66s0.17-0.68,0.17-1.22v-3.33h1.05v6.22H84.9z"/>
	<path d="M87.08,85.5l1.04-0.16c0.06,0.42,0.22,0.74,0.49,0.96s0.64,0.33,1.12,0.33c0.48,0,0.84-0.1,1.08-0.3s0.35-0.43,0.35-0.69
		c0-0.24-0.1-0.43-0.31-0.56c-0.14-0.09-0.5-0.21-1.08-0.36c-0.77-0.2-1.31-0.36-1.61-0.51s-0.53-0.34-0.68-0.59
		s-0.23-0.53-0.23-0.83c0-0.28,0.06-0.53,0.19-0.77s0.3-0.43,0.52-0.59c0.16-0.12,0.39-0.22,0.67-0.31s0.59-0.13,0.91-0.13
		c0.49,0,0.92,0.07,1.29,0.21s0.64,0.33,0.82,0.57s0.3,0.56,0.36,0.96l-1.03,0.14c-0.05-0.32-0.18-0.57-0.41-0.75
		s-0.54-0.27-0.95-0.27c-0.48,0-0.83,0.08-1.04,0.24s-0.31,0.35-0.31,0.56c0,0.14,0.04,0.26,0.13,0.37c0.09,0.11,0.22,0.21,0.4,0.28
		c0.11,0.04,0.42,0.13,0.93,0.27c0.75,0.2,1.27,0.36,1.56,0.49s0.53,0.31,0.69,0.55s0.25,0.54,0.25,0.9c0,0.35-0.1,0.68-0.31,0.99
		s-0.5,0.55-0.89,0.72s-0.82,0.25-1.31,0.25c-0.81,0-1.42-0.17-1.85-0.5S87.19,86.16,87.08,85.5z"/>
	<path d="M97.56,86.59c-0.39,0.33-0.77,0.57-1.13,0.7s-0.75,0.21-1.16,0.21c-0.68,0-1.21-0.17-1.58-0.5s-0.55-0.76-0.55-1.28
		c0-0.3,0.07-0.58,0.21-0.83s0.32-0.45,0.54-0.61s0.48-0.27,0.76-0.35c0.21-0.05,0.52-0.11,0.94-0.16c0.85-0.1,1.48-0.22,1.88-0.36
		c0-0.14,0.01-0.24,0.01-0.28c0-0.43-0.1-0.73-0.3-0.91c-0.27-0.24-0.67-0.36-1.2-0.36c-0.5,0-0.86,0.09-1.1,0.26
		s-0.41,0.48-0.52,0.92l-1.03-0.14c0.09-0.44,0.25-0.8,0.46-1.07s0.53-0.48,0.93-0.63s0.88-0.22,1.41-0.22
		c0.53,0,0.96,0.06,1.29,0.19s0.58,0.28,0.73,0.47s0.27,0.43,0.33,0.72c0.04,0.18,0.05,0.5,0.05,0.97v1.41
		c0,0.98,0.02,1.6,0.07,1.86s0.13,0.51,0.27,0.75h-1.1C97.66,87.13,97.59,86.88,97.56,86.59z M94.05,80.21
		c0-0.41,0.11-0.73,0.33-0.97c0.22-0.24,0.51-0.36,0.86-0.36c0.24,0,0.57,0.11,0.99,0.32c0.23,0.12,0.41,0.18,0.55,0.18
		c0.13,0,0.22-0.03,0.29-0.1s0.11-0.2,0.14-0.41h0.76c-0.01,0.45-0.12,0.78-0.34,1s-0.48,0.33-0.81,0.33
		c-0.25,0-0.57-0.11-0.97-0.33c-0.26-0.14-0.45-0.21-0.57-0.21c-0.13,0-0.24,0.05-0.32,0.14c-0.09,0.09-0.13,0.23-0.12,0.42H94.05z
		 M97.47,84.23c-0.38,0.16-0.96,0.29-1.72,0.4c-0.43,0.06-0.74,0.13-0.92,0.21s-0.32,0.19-0.42,0.34s-0.15,0.32-0.15,0.5
		c0,0.28,0.11,0.52,0.32,0.7s0.52,0.28,0.93,0.28c0.41,0,0.77-0.09,1.08-0.27s0.55-0.42,0.7-0.73c0.11-0.24,0.17-0.59,0.17-1.05
		V84.23z"/>
	<path d="M99.78,84.24c0-1.15,0.32-2.01,0.96-2.56c0.54-0.46,1.19-0.69,1.96-0.69c0.86,0,1.55,0.28,2.1,0.84s0.81,1.33,0.81,2.32
		c0,0.8-0.12,1.43-0.36,1.89s-0.59,0.82-1.05,1.07s-0.96,0.38-1.5,0.38c-0.87,0-1.58-0.28-2.11-0.84S99.78,85.29,99.78,84.24z
		 M100.86,84.24c0,0.8,0.17,1.39,0.52,1.79s0.79,0.59,1.31,0.59c0.52,0,0.96-0.2,1.31-0.6s0.52-1.01,0.52-1.82
		c0-0.77-0.17-1.35-0.52-1.75s-0.78-0.59-1.3-0.59c-0.53,0-0.96,0.2-1.31,0.59S100.86,83.44,100.86,84.24z"/>
</g>
<g>
	<path d="M184.51,87.18v-8.59h3.24c0.57,0,1.01,0.03,1.31,0.08c0.42,0.07,0.78,0.2,1.06,0.4s0.51,0.47,0.69,0.83
		s0.26,0.75,0.26,1.17c0,0.73-0.23,1.35-0.7,1.85s-1.3,0.76-2.52,0.76h-2.2v3.49H184.51z M185.65,82.67h2.22
		c0.73,0,1.26-0.14,1.56-0.41s0.46-0.66,0.46-1.15c0-0.36-0.09-0.67-0.27-0.92s-0.42-0.42-0.72-0.51c-0.19-0.05-0.54-0.08-1.06-0.08
		h-2.2V82.67z"/>
	<path d="M192.37,87.18v-6.22h0.95v0.94c0.24-0.44,0.47-0.73,0.67-0.87s0.43-0.21,0.68-0.21c0.36,0,0.72,0.11,1.08,0.34l-0.36,0.98
		c-0.26-0.15-0.52-0.23-0.77-0.23c-0.23,0-0.44,0.07-0.62,0.21s-0.31,0.33-0.39,0.58c-0.12,0.38-0.18,0.79-0.18,1.23v3.26H192.37z"
		/>
	<path d="M200.64,85.17l1.09,0.13c-0.17,0.64-0.49,1.13-0.96,1.48s-1.06,0.53-1.78,0.53c-0.91,0-1.63-0.28-2.17-0.84
		s-0.8-1.35-0.8-2.36c0-1.05,0.27-1.86,0.81-2.44s1.24-0.87,2.1-0.87c0.83,0,1.51,0.28,2.04,0.85s0.79,1.36,0.79,2.39
		c0,0.06,0,0.16-0.01,0.28h-4.64c0.04,0.68,0.23,1.21,0.58,1.57s0.78,0.54,1.3,0.54c0.39,0,0.72-0.1,0.99-0.3
		S200.48,85.62,200.64,85.17z M197.18,83.47h3.47c-0.05-0.52-0.18-0.92-0.4-1.18c-0.34-0.41-0.77-0.61-1.31-0.61
		c-0.48,0-0.89,0.16-1.22,0.49S197.21,82.92,197.18,83.47z"/>
	<path d="M203.05,87.18v-6.22H204v0.87c0.2-0.3,0.46-0.55,0.78-0.74s0.69-0.28,1.11-0.28c0.46,0,0.84,0.1,1.13,0.29
		s0.5,0.46,0.62,0.8c0.49-0.73,1.13-1.09,1.92-1.09c0.62,0,1.09,0.17,1.42,0.51s0.5,0.87,0.5,1.58v4.27h-1.05v-3.92
		c0-0.42-0.03-0.73-0.1-0.91s-0.19-0.33-0.37-0.45s-0.39-0.17-0.63-0.17c-0.44,0-0.8,0.15-1.09,0.44s-0.43,0.76-0.43,1.4v3.62h-1.05
		v-4.04c0-0.47-0.09-0.82-0.26-1.05s-0.45-0.35-0.84-0.35c-0.3,0-0.57,0.08-0.82,0.23s-0.43,0.38-0.55,0.69s-0.17,0.73-0.17,1.3
		v3.23H203.05z"/>
	<path d="M213.05,79.8v-1.21h1.05v1.21H213.05z M213.05,87.18v-6.22h1.05v6.22H213.05z"/>
	<path d="M215.29,85.32l1.04-0.16c0.06,0.42,0.22,0.74,0.49,0.96s0.64,0.33,1.12,0.33c0.48,0,0.84-0.1,1.08-0.3s0.35-0.43,0.35-0.69
		c0-0.24-0.1-0.43-0.31-0.56c-0.14-0.09-0.5-0.21-1.08-0.36c-0.77-0.2-1.31-0.36-1.61-0.51s-0.53-0.34-0.68-0.59
		s-0.23-0.53-0.23-0.83c0-0.28,0.06-0.53,0.19-0.77s0.3-0.43,0.52-0.59c0.16-0.12,0.39-0.22,0.67-0.31s0.59-0.13,0.91-0.13
		c0.49,0,0.92,0.07,1.29,0.21s0.64,0.33,0.82,0.57s0.3,0.56,0.36,0.96l-1.03,0.14c-0.05-0.32-0.18-0.57-0.41-0.75
		s-0.54-0.27-0.95-0.27c-0.48,0-0.83,0.08-1.04,0.24s-0.31,0.35-0.31,0.56c0,0.14,0.04,0.26,0.13,0.37c0.09,0.11,0.22,0.21,0.4,0.28
		c0.11,0.04,0.42,0.13,0.93,0.27c0.75,0.2,1.27,0.36,1.56,0.49s0.53,0.31,0.69,0.55s0.25,0.54,0.25,0.9c0,0.35-0.1,0.68-0.31,0.99
		s-0.5,0.55-0.89,0.72s-0.82,0.25-1.31,0.25c-0.81,0-1.42-0.17-1.85-0.5S215.41,85.98,215.29,85.32z"/>
	<path d="M221.29,85.32l1.04-0.16c0.06,0.42,0.22,0.74,0.49,0.96s0.64,0.33,1.12,0.33c0.48,0,0.84-0.1,1.08-0.3s0.35-0.43,0.35-0.69
		c0-0.24-0.1-0.43-0.31-0.56c-0.14-0.09-0.5-0.21-1.08-0.36c-0.77-0.2-1.31-0.36-1.61-0.51s-0.53-0.34-0.68-0.59
		s-0.23-0.53-0.23-0.83c0-0.28,0.06-0.53,0.19-0.77s0.3-0.43,0.52-0.59c0.16-0.12,0.39-0.22,0.67-0.31s0.59-0.13,0.91-0.13
		c0.49,0,0.92,0.07,1.29,0.21s0.64,0.33,0.82,0.57s0.3,0.56,0.36,0.96l-1.03,0.14c-0.05-0.32-0.18-0.57-0.41-0.75
		s-0.54-0.27-0.95-0.27c-0.48,0-0.83,0.08-1.04,0.24s-0.31,0.35-0.31,0.56c0,0.14,0.04,0.26,0.13,0.37c0.09,0.11,0.22,0.21,0.4,0.28
		c0.11,0.04,0.42,0.13,0.93,0.27c0.75,0.2,1.27,0.36,1.56,0.49s0.53,0.31,0.69,0.55s0.25,0.54,0.25,0.9c0,0.35-0.1,0.68-0.31,0.99
		s-0.5,0.55-0.89,0.72s-0.82,0.25-1.31,0.25c-0.81,0-1.42-0.17-1.85-0.5S221.41,85.98,221.29,85.32z"/>
	<path d="M231.78,86.41c-0.39,0.33-0.77,0.57-1.13,0.7s-0.75,0.21-1.16,0.21c-0.68,0-1.21-0.17-1.58-0.5s-0.55-0.76-0.55-1.28
		c0-0.3,0.07-0.58,0.21-0.83s0.32-0.45,0.54-0.61s0.48-0.27,0.76-0.35c0.21-0.05,0.52-0.11,0.94-0.16c0.85-0.1,1.48-0.22,1.88-0.36
		c0-0.14,0.01-0.24,0.01-0.28c0-0.43-0.1-0.73-0.3-0.91c-0.27-0.24-0.67-0.36-1.2-0.36c-0.5,0-0.86,0.09-1.1,0.26
		s-0.41,0.48-0.52,0.92l-1.03-0.14c0.09-0.44,0.25-0.8,0.46-1.07s0.53-0.48,0.93-0.63s0.88-0.22,1.41-0.22
		c0.53,0,0.96,0.06,1.29,0.19s0.58,0.28,0.73,0.47s0.27,0.43,0.33,0.72c0.04,0.18,0.05,0.5,0.05,0.97v1.41
		c0,0.98,0.02,1.6,0.07,1.86s0.13,0.51,0.27,0.75h-1.1C231.88,86.96,231.81,86.7,231.78,86.41z M231.69,84.05
		c-0.38,0.16-0.96,0.29-1.72,0.4c-0.43,0.06-0.74,0.13-0.92,0.21s-0.32,0.19-0.42,0.34s-0.15,0.32-0.15,0.5
		c0,0.28,0.11,0.52,0.32,0.7s0.52,0.28,0.93,0.28c0.41,0,0.77-0.09,1.08-0.27s0.55-0.42,0.7-0.73c0.11-0.24,0.17-0.59,0.17-1.05
		V84.05z"/>
</g>
<g>
	<rect x="30.18" y="16.18" fill="#4D4D4D" width="1.41" height="15.53"/>
	<polyline fill="#4D4D4D" points="35.59,29.11 31.02,35.51 26.46,29.11 	"/>
</g>
<g>
	
		<rect x="75.34" y="61.27" transform="matrix(-1 -1.224647e-16 1.224647e-16 -1 152.0952 138.0701)" fill="#4D4D4D" width="1.41" height="15.53"/>
	<polyline fill="#4D4D4D" points="71.34,63.86 75.91,57.47 80.47,63.86 	"/>
</g>
<g>
	
		<rect x="208.52" y="61.15" transform="matrix(-1 -1.224647e-16 1.224647e-16 -1 418.4481 137.8348)" fill="#4D4D4D" width="1.41" height="15.53"/>
	<polyline fill="#4D4D4D" points="204.52,63.74 209.08,57.35 213.64,63.74 	"/>
</g>
</svg>
