<?xml version="1.0" encoding="iso-8859-1"?>
<!-- Generator: Adobe Illustrator 16.0.0, SVG Export Plug-In . SVG Version: 6.00 Build 0)  -->
<!DOCTYPE svg PUBLIC "-//W3C//DTD SVG 1.0//EN" "http://www.w3.org/TR/2001/REC-SVG-20010904/DTD/svg10.dtd">
<svg version="1.0" id="Layer_1" xmlns="http://www.w3.org/2000/svg" xmlns:xlink="http://www.w3.org/1999/xlink" x="0px" y="0px"
	 width="512px" height="691px" viewBox="0 0 512 691" enable-background="new 0 0 512 691" xml:space="preserve">
<linearGradient id="SVGID_1_" gradientUnits="userSpaceOnUse" x1="-102.7036" y1="704.3535" x2="-102.7036" y2="705.657" gradientTransform="matrix(284.1381 0 0 -527.8066 29431.75 372650.5)">
	<stop  offset="0" style="stop-color:#010101;stop-opacity:0.3882"/>
	<stop  offset="0.5" style="stop-color:#FFFFFF;stop-opacity:0.3438"/>
	<stop  offset="1" style="stop-color:#FFFFFF;stop-opacity:0.1961"/>
</linearGradient>
<path fill="url(#SVGID_1_)" d="M136.692,519.958c30.809,68.041,199.64,72.548,237.021-6.197l17.948-467.847
	c-7.079,76.075-274.868,77.661-284.139-1.814L136.692,519.958L136.692,519.958z"/>
<linearGradient id="SVGID_2_" gradientUnits="userSpaceOnUse" x1="-103.6367" y1="705.4033" x2="-103.0213" y2="705.4454" gradientTransform="matrix(284.1381 0 0 -527.8066 29429 372678.5)">
	<stop  offset="0" style="stop-color:#010101;stop-opacity:0.3882"/>
	<stop  offset="0.5" style="stop-color:#010101;stop-opacity:0.1922"/>
	<stop  offset="1" style="stop-color:#010101;stop-opacity:0"/>
</linearGradient>
<path fill="url(#SVGID_2_)" d="M133.997,547.786c30.81,68.042,199.641,72.549,237.022-6.196l17.947-467.847
	c-7.078,76.074-274.868,77.66-284.138-1.815L133.997,547.786z"/>
<linearGradient id="SVGID_3_" gradientUnits="userSpaceOnUse" x1="-101.918" y1="705.417" x2="-102.3408" y2="705.4433" gradientTransform="matrix(284.1381 0 0 -527.8066 29431.25 372671.5)">
	<stop  offset="0" style="stop-color:#010101;stop-opacity:0.3882"/>
	<stop  offset="0.5" style="stop-color:#010101;stop-opacity:0.1922"/>
	<stop  offset="1" style="stop-color:#010101;stop-opacity:0"/>
</linearGradient>
<path fill="url(#SVGID_3_)" d="M136.146,541.047c30.809,68.041,199.64,72.549,237.021-6.196l17.948-467.847
	c-7.078,76.074-274.868,77.66-284.138-1.815L136.146,541.047L136.146,541.047z"/>
<linearGradient id="SVGID_4_" gradientUnits="userSpaceOnUse" x1="-102.731" y1="706.041" x2="-102.731" y2="705.5473" gradientTransform="matrix(251.6892 0 0 -131.9852 26106 93378.5)">
	<stop  offset="0" style="stop-color:#010101;stop-opacity:0.3882"/>
	<stop  offset="0.5" style="stop-color:#010101;stop-opacity:0.1922"/>
	<stop  offset="1" style="stop-color:#010101;stop-opacity:0"/>
</linearGradient>
<path fill="url(#SVGID_4_)" d="M245.691,222.184c-100.825,4.002-121.947,51.674-121.561,73.621
	c0.388,21.947,26.986,58.246,123.938,58.117c10.006-0.173,18.845-1.078,27.488-2.093c-6.882,0.563-13.439,1.189-21.687,1.332
	c-96.951,0.129-97.298-25.232-97.686-47.178c-0.387-21.947,0.33-78.281,94.262-77.901c93.931-0.715,97.964,47.014,98.351,68.96
	c0.224,12.669,0.272,28.685-17.882,40.425c32.977-15.39,45.139-37.993,44.896-51.744
	C375.424,263.775,347.29,218.182,245.691,222.184z"/>
<linearGradient id="SVGID_5_" gradientUnits="userSpaceOnUse" x1="-102.6523" y1="703.7422" x2="-102.7397" y2="705.468" gradientTransform="matrix(251.7474 0 0 -131.9265 26113.625 93337.1875)">
	<stop  offset="0" style="stop-color:#010101;stop-opacity:0.3882"/>
	<stop  offset="0.5" style="stop-color:#010101;stop-opacity:0.1922"/>
	<stop  offset="1" style="stop-color:#010101;stop-opacity:0"/>
</linearGradient>
<path fill="url(#SVGID_5_)" d="M125.824,295.934c0.388,21.947,26.981,58.222,123.933,58.093
	c96.952-1.678,128.193-46.216,127.806-68.163c-0.387-21.947-28.53-67.518-130.13-63.516
	C146.608,226.351,125.437,273.988,125.824,295.934L125.824,295.934z"/>
<linearGradient id="SVGID_6_" gradientUnits="userSpaceOnUse" x1="-102.8008" y1="705.4463" x2="-102.8008" y2="706.9534" gradientTransform="matrix(192.6906 0 0 -125.1146 20065.125 88535.25)">
	<stop  offset="0" style="stop-color:#FFFFFF;stop-opacity:0"/>
	<stop  offset="1" style="stop-color:#FFFFFF"/>
</linearGradient>
<path fill="url(#SVGID_6_)" d="M160.089,307.364c0.388,21.947,0.691,47.269,97.643,47.139c96.952-1.679,95.331-34.167,94.943-56.113
	s-4.431-69.708-98.362-68.993C160.382,229.017,159.702,285.417,160.089,307.364L160.089,307.364z"/>
<linearGradient id="SVGID_7_" gradientUnits="userSpaceOnUse" x1="-103.5454" y1="705.3066" x2="-102.9254" y2="705.29" gradientTransform="matrix(284.1889 0 0 -116.1699 29436 82000.9375)">
	<stop  offset="0" style="stop-color:#010101;stop-opacity:0.3882"/>
	<stop  offset="0.5" style="stop-color:#010101;stop-opacity:0.1922"/>
	<stop  offset="1" style="stop-color:#010101;stop-opacity:0"/>
</linearGradient>
<linearGradient id="SVGID_8_" gradientUnits="userSpaceOnUse" x1="-103.2036" y1="705.2852" x2="-102.2036" y2="705.2852" gradientTransform="matrix(284.1889 0 0 -116.1699 29436 82000.9375)">
	<stop  offset="0" style="stop-color:#010101;stop-opacity:0.3882"/>
	<stop  offset="0.5" style="stop-color:#010101;stop-opacity:0.1922"/>
	<stop  offset="1" style="stop-color:#010101;stop-opacity:0"/>
</linearGradient>
<path fill="url(#SVGID_7_)" stroke="url(#SVGID_8_)" stroke-width="1.25" d="M390.822,68.818
	c-7.079,76.075-274.868,77.661-284.138-1.814C102.251-4.427,389.834-13.892,390.822,68.818z"/>
<radialGradient id="SVGID_9_" cx="-102.6133" cy="705.3652" r="0.4083" fx="-102.6345" fy="705.7419" gradientTransform="matrix(510.9255 0 0 -241.34 52683.5 170819.625)" gradientUnits="userSpaceOnUse">
	<stop  offset="0" style="stop-color:#FFFFFF"/>
	<stop  offset="0.5296" style="stop-color:#FFFFFF;stop-opacity:0.1608"/>
	<stop  offset="0.6771" style="stop-color:#010101;stop-opacity:0.0588"/>
	<stop  offset="1" style="stop-color:#010101;stop-opacity:0"/>
</radialGradient>
<path fill="url(#SVGID_9_)" d="M136.692,543.195c30.809,68.041,199.64,72.548,237.021-6.197l3.958-73.409
	c169.192-13.085,223.703,231.628-118.784,236.352c-339.389,4.723-304.016-215.47-128.174-241.266L136.692,543.195L136.692,543.195z"
	/>
<linearGradient id="SVGID_10_" gradientUnits="userSpaceOnUse" x1="-102.7729" y1="704.6826" x2="-102.7589" y2="705.4236" gradientTransform="matrix(228.5013 0 0 -95.2332 23733.875 67700.9375)">
	<stop  offset="0" style="stop-color:#010101;stop-opacity:0.3882"/>
	<stop  offset="0.5" style="stop-color:#010101;stop-opacity:0.1922"/>
	<stop  offset="1" style="stop-color:#010101;stop-opacity:0"/>
</linearGradient>
<path fill="url(#SVGID_10_)" d="M140.396,499.338l2.323,32.532c0.646,9.043-1.937,17.428,9.295,25.561
	c43.764,42.215,158.272,33.823,192.87,4.647c11.361-12.135,18.332-15.488,19.365-26.336l4.647-44.15
	c-24.787-3.615-57.965,28.918-113.863,29.434C197.586,521.542,178.608,493.141,140.396,499.338L140.396,499.338z"/>
<g transform="matrix(.67639,0,0,.67639,-32.46349,-245.13311)">
	
		<linearGradient id="SVGID_11_" gradientUnits="userSpaceOnUse" x1="-103.9265" y1="1405.3472" x2="-103.9265" y2="1402.812" gradientTransform="matrix(224.6284 0 0 -56.8882 23764.0176 81085.375)">
		<stop  offset="0" style="stop-color:#FFFFFF;stop-opacity:0"/>
		<stop  offset="1" style="stop-color:#FFFFFF"/>
	</linearGradient>
	<path fill="url(#SVGID_11_)" d="M585.344,1126.717c-60.694,67.184-224.452,100.011-332.098,9.162
		C286.074,1225.966,542.592,1248.487,585.344,1126.717z"/>
	
		<linearGradient id="SVGID_12_" gradientUnits="userSpaceOnUse" x1="-103.9178" y1="1405.3965" x2="-103.9178" y2="1402.8613" gradientTransform="matrix(229.4853 0 0 -61.5777 24267.5391 87673.4297)">
		<stop  offset="0" style="stop-color:#FFFFFF;stop-opacity:0"/>
		<stop  offset="1" style="stop-color:#FFFFFF"/>
	</linearGradient>
	<path fill="url(#SVGID_12_)" d="M588.471,1121.334c-10.716,9.122-21.365,18.372-32.179,27.351
		c-12.186,6.602-24.575,12.798-37.235,18.44c-10.121,5.095-21.255,7.619-31.886,11.419c-5.603,2.004-11.256,3.765-17.216,4.268
		c-12.746,1.793-25.453,4.152-38.224,5.589c-15.636-0.244-31.313-0.072-46.926-0.572c-12.396-2.401-24.92-4.308-37.24-7.015
		c-10.626-3.729-21.515-6.793-31.974-10.953c-8.166-3.878-16.683-7.207-24.634-11.413c-12.821-8.455-25.578-17.117-38.438-25.442
		c-3.42-1.987-2.118,2.672-0.982,4.291c3.025,5.716,6.465,11.521,9.841,16.944c6.087,6.01,12.056,12.396,18.208,18.184
		c7.46,4.3,14.631,9.245,22.269,13.14c10.735,4.404,21.28,9.383,32.133,13.424c12.76,2.921,25.455,6.25,38.255,8.918
		c12.324,1.063,24.614,2.808,36.961,3.426c12.604-0.261,25.276,0.749,37.803-1.028c10.066-1.045,20.174-1.803,30.032-4.22
		c7.72-1.36,15.346-3.081,22.702-5.83c10.306-3.041,20.278-6.986,30.149-11.208c6.136-2.096,10.681-7.062,16.056-10.555
		c5.564-4.272,11.666-7.831,16.042-13.375c4.523-4.997,9.624-9.385,12.796-15.388c3.611-5.339,6.971-10.758,9.305-16.784
		c1.783-4.219,4.03-8.263,5.508-12.596L588.471,1121.334L588.471,1121.334z"/>
</g>
<radialGradient id="SVGID_13_" cx="-102.6919" cy="705.1738" r="0.5" fx="-102.7024" fy="704.7791" gradientTransform="matrix(302.3365 0 0 -76.7071 31300.75 54618.5625)" gradientUnits="userSpaceOnUse">
	<stop  offset="0" style="stop-color:#FFFFFF;stop-opacity:0.6198"/>
	<stop  offset="1" style="stop-color:#FFFFFF;stop-opacity:0"/>
</radialGradient>
<path fill="url(#SVGID_13_)" d="M404.354,526.723c0.029-21.175-67.628-38.346-151.115-38.354
	c-83.488-0.008-151.191,17.152-151.221,38.327c0,0.009,0,0.018,0,0.026c-0.029,21.175,67.628,38.346,151.115,38.354
	c83.488,0.008,151.191-17.152,151.221-38.327C404.354,526.74,404.354,526.731,404.354,526.723z"/>
</svg>
